<?xml version="1.0" standalone="no"?>
<!DOCTYPE svg PUBLIC "-//W3C//DTD SVG 20010904//EN"
 "http://www.w3.org/TR/2001/REC-SVG-20010904/DTD/svg10.dtd">
<svg version="1.0" xmlns="http://www.w3.org/2000/svg"
 width="819.000000pt" height="448.000000pt" viewBox="0 0 819.000000 448.000000"
 preserveAspectRatio="xMidYMid meet">

<g transform="translate(0.000000,448.000000) scale(0.100000,-0.100000)"
fill="#000000" stroke="none">
<path d="M32 4288 l3 -73 105 0 105 0 3 73 3 72 -111 0 -111 0 3 -72z m69 26
c12 -15 11 -16 -9 -10 -18 6 -22 4 -22 -14 0 -18 4 -21 22 -17 20 6 20 5 5
-10 -13 -13 -19 -14 -31 -3 -19 15 -21 41 -4 58 16 16 23 15 39 -4z m78 -18
c8 -13 10 -29 6 -36 -5 -7 -12 -2 -21 15 -8 15 -14 31 -14 36 0 17 17 9 29
-15z m46 -36 c3 -5 -1 -10 -10 -10 -9 0 -13 5 -10 10 3 6 8 10 10 10 2 0 7 -4
10 -10z"/>
<path d="M0 2070 l0 -2070 4095 0 4095 0 0 2070 0 2070 -4095 0 -4095 0 0
-2070z m100 1910 c0 -25 4 -30 25 -30 14 0 25 -4 25 -10 0 -5 -11 -10 -25 -10
-21 0 -25 -5 -25 -30 0 -20 -5 -30 -15 -30 -10 0 -15 10 -15 30 0 25 -4 30
-25 30 -14 0 -25 5 -25 10 0 6 11 10 25 10 21 0 25 5 25 30 0 20 5 30 15 30
10 0 15 -10 15 -30z m320 0 c0 -25 4 -30 25 -30 14 0 25 -4 25 -10 0 -5 -11
-10 -25 -10 -21 0 -25 -5 -25 -30 0 -20 -5 -30 -15 -30 -10 0 -15 10 -15 30 0
25 -4 30 -25 30 -14 0 -25 5 -25 10 0 6 11 10 25 10 21 0 25 5 25 30 0 20 5
30 15 30 10 0 15 -10 15 -30z m320 0 c0 -25 4 -30 25 -30 14 0 25 -4 25 -10 0
-5 -11 -10 -25 -10 -21 0 -25 -5 -25 -30 0 -20 -5 -30 -15 -30 -10 0 -15 10
-15 30 0 25 -4 30 -25 30 -14 0 -25 5 -25 10 0 6 11 10 25 10 21 0 25 5 25 30
0 20 5 30 15 30 10 0 15 -10 15 -30z m320 0 c0 -25 4 -30 25 -30 14 0 25 -4
25 -10 0 -5 -11 -10 -25 -10 -21 0 -25 -5 -25 -30 0 -20 -5 -30 -15 -30 -10 0
-15 10 -15 30 0 25 -4 30 -25 30 -14 0 -25 5 -25 10 0 6 11 10 25 10 21 0 25
5 25 30 0 20 5 30 15 30 10 0 15 -10 15 -30z m320 0 c0 -25 4 -30 25 -30 14 0
25 -4 25 -10 0 -5 -11 -10 -25 -10 -21 0 -25 -5 -25 -30 0 -20 -5 -30 -15 -30
-10 0 -15 10 -15 30 0 25 -4 30 -25 30 -14 0 -25 5 -25 10 0 6 11 10 25 10 21
0 25 5 25 30 0 20 5 30 15 30 10 0 15 -10 15 -30z m-1090 -40 c0 -5 -20 -10
-45 -10 -25 0 -45 5 -45 10 0 6 20 10 45 10 25 0 45 -4 45 -10z m320 0 c0 -5
-20 -10 -45 -10 -25 0 -45 5 -45 10 0 6 20 10 45 10 25 0 45 -4 45 -10z m320
0 c0 -5 -20 -10 -45 -10 -25 0 -45 5 -45 10 0 6 20 10 45 10 25 0 45 -4 45
-10z m320 0 c0 -5 -20 -10 -45 -10 -25 0 -45 5 -45 10 0 6 20 10 45 10 25 0
45 -4 45 -10z m-1150 -350 c0 -127 -2 -150 -15 -150 -13 0 -15 23 -15 150 0
127 2 150 15 150 13 0 15 -23 15 -150z m320 0 c0 -127 -2 -150 -15 -150 -13 0
-15 23 -15 150 0 127 2 150 15 150 13 0 15 -23 15 -150z m320 0 c0 -127 -2
-150 -15 -150 -13 0 -15 23 -15 150 0 127 2 150 15 150 13 0 15 -23 15 -150z
m320 0 c0 -127 -2 -150 -15 -150 -13 0 -15 23 -15 150 0 127 2 150 15 150 13
0 15 -23 15 -150z m320 0 c0 -127 -2 -150 -15 -150 -13 0 -15 23 -15 150 0
127 2 150 15 150 13 0 15 -23 15 -150z m-1070 90 c0 -5 -11 -10 -25 -10 -25 0
-25 -1 -25 -85 0 -69 -3 -85 -15 -85 -12 0 -15 16 -15 85 0 84 0 85 -25 85
-14 0 -25 5 -25 10 0 6 28 10 65 10 37 0 65 -4 65 -10z m310 0 c0 -5 -18 -10
-40 -10 -38 0 -40 -2 -40 -30 0 -28 2 -30 40 -30 22 0 40 -4 40 -10 0 -5 -18
-10 -40 -10 -39 0 -40 -1 -40 -35 0 -34 1 -35 40 -35 22 0 40 -4 40 -10 0 -5
-25 -10 -55 -10 l-55 0 0 95 0 95 55 0 c30 0 55 -4 55 -10z m304 4 c28 -11 17
-19 -26 -19 -36 0 -43 -3 -43 -20 0 -12 11 -25 30 -34 67 -31 83 -67 43 -95
-23 -16 -64 -21 -92 -10 -29 11 -16 19 31 19 43 0 48 2 48 22 0 17 -12 29 -45
45 -53 27 -63 57 -28 82 23 17 55 20 82 10z m346 -4 c0 -5 -11 -10 -25 -10
-25 0 -25 -1 -25 -85 0 -69 -3 -85 -15 -85 -12 0 -15 16 -15 85 0 84 0 85 -25
85 -14 0 -25 5 -25 10 0 6 28 10 65 10 37 0 65 -4 65 -10z m-1170 -420 c0 -25
4 -30 25 -30 14 0 25 -4 25 -10 0 -5 -11 -10 -25 -10 -21 0 -25 -5 -25 -30 0
-20 -5 -30 -15 -30 -10 0 -15 10 -15 30 0 25 -4 30 -25 30 -14 0 -25 5 -25 10
0 6 11 10 25 10 21 0 25 5 25 30 0 20 5 30 15 30 10 0 15 -10 15 -30z m320 0
c0 -25 4 -30 25 -30 14 0 25 -4 25 -10 0 -5 -11 -10 -25 -10 -21 0 -25 -5 -25
-30 0 -20 -5 -30 -15 -30 -10 0 -15 10 -15 30 0 25 -4 30 -25 30 -14 0 -25 5
-25 10 0 6 11 10 25 10 21 0 25 5 25 30 0 20 5 30 15 30 10 0 15 -10 15 -30z
m320 0 c0 -25 4 -30 25 -30 14 0 25 -4 25 -10 0 -5 -11 -10 -25 -10 -21 0 -25
-5 -25 -30 0 -20 -5 -30 -15 -30 -10 0 -15 10 -15 30 0 25 -4 30 -25 30 -14 0
-25 5 -25 10 0 6 11 10 25 10 21 0 25 5 25 30 0 20 5 30 15 30 10 0 15 -10 15
-30z m320 0 c0 -25 4 -30 25 -30 14 0 25 -4 25 -10 0 -5 -11 -10 -25 -10 -21
0 -25 -5 -25 -30 0 -20 -5 -30 -15 -30 -10 0 -15 10 -15 30 0 25 -4 30 -25 30
-14 0 -25 5 -25 10 0 6 11 10 25 10 21 0 25 5 25 30 0 20 5 30 15 30 10 0 15
-10 15 -30z m320 0 c0 -25 4 -30 25 -30 14 0 25 -4 25 -10 0 -5 -11 -10 -25
-10 -21 0 -25 -5 -25 -30 0 -20 -5 -30 -15 -30 -10 0 -15 10 -15 30 0 25 -4
30 -25 30 -14 0 -25 5 -25 10 0 6 11 10 25 10 21 0 25 5 25 30 0 20 5 30 15
30 10 0 15 -10 15 -30z m-1090 -40 c0 -5 -20 -10 -45 -10 -25 0 -45 5 -45 10
0 6 20 10 45 10 25 0 45 -4 45 -10z m320 0 c0 -5 -20 -10 -45 -10 -25 0 -45 5
-45 10 0 6 20 10 45 10 25 0 45 -4 45 -10z m320 0 c0 -5 -20 -10 -45 -10 -25
0 -45 5 -45 10 0 6 20 10 45 10 25 0 45 -4 45 -10z m320 0 c0 -5 -20 -10 -45
-10 -25 0 -45 5 -45 10 0 6 20 10 45 10 25 0 45 -4 45 -10z m135 -610 c0 -8
-8 -16 -17 -18 -13 -2 -18 3 -18 18 0 15 5 20 18 18 9 -2 17 -10 17 -18z m835
-85 c0 -63 -4 -105 -10 -105 -5 0 -10 4 -10 9 0 5 -13 4 -29 -2 -42 -15 -71
11 -71 64 0 46 30 79 72 79 24 0 28 4 28 30 0 17 5 30 10 30 6 0 10 -42 10
-105z m765 85 c0 -8 -8 -16 -17 -18 -13 -2 -18 3 -18 18 0 15 5 20 18 18 9 -2
17 -10 17 -18z m155 -75 c0 -88 1 -95 20 -95 11 0 20 -4 20 -10 0 -5 -25 -10
-55 -10 -30 0 -55 5 -55 10 0 6 9 10 20 10 18 0 20 7 20 85 0 78 -2 85 -20 85
-11 0 -20 5 -20 10 0 6 16 10 35 10 l35 0 0 -95z m-3040 -10 c0 -84 0 -85 25
-85 14 0 25 -4 25 -10 0 -6 -27 -10 -60 -10 -33 0 -60 4 -60 10 0 6 11 10 25
10 24 0 25 2 25 76 l0 76 -24 -16 c-16 -10 -27 -12 -31 -6 -6 9 45 38 68 40 4
0 7 -38 7 -85z m527 69 c2 -6 -10 -8 -31 -6 -46 5 -76 -24 -76 -75 0 -45 24
-73 62 -73 24 0 28 4 28 30 0 23 -4 30 -20 30 -11 0 -20 5 -20 10 0 6 14 10
30 10 29 0 30 -2 30 -44 0 -45 -10 -56 -50 -56 -85 0 -121 116 -53 170 28 22
93 25 100 4z m2073 6 c0 -5 -18 -10 -40 -10 -39 0 -40 -1 -40 -35 0 -33 2 -35
35 -35 19 0 35 -4 35 -10 0 -5 -16 -10 -35 -10 -34 0 -35 -1 -35 -40 0 -29 -4
-40 -15 -40 -12 0 -15 17 -15 95 l0 95 55 0 c30 0 55 -4 55 -10z m-1932 -46
c12 -8 22 -26 22 -40 0 -23 -3 -24 -55 -24 -58 0 -66 -8 -38 -35 11 -11 28
-15 50 -13 20 3 32 0 30 -6 -2 -6 -20 -12 -40 -14 -69 -6 -104 73 -55 125 25
27 54 29 86 7z m82 7 c0 -5 13 -4 29 2 46 17 61 -2 61 -79 0 -36 -4 -64 -10
-64 -6 0 -10 27 -10 60 0 66 -12 80 -49 60 -17 -9 -21 -20 -21 -65 0 -30 -4
-55 -10 -55 -6 0 -10 32 -10 75 0 43 4 75 10 75 6 0 10 -4 10 -9z m238 -7 c12
-8 22 -26 22 -40 0 -23 -3 -24 -55 -24 -58 0 -66 -8 -38 -35 11 -11 28 -15 50
-13 20 3 32 0 30 -6 -2 -6 -20 -12 -40 -14 -69 -6 -104 73 -55 125 25 27 54
29 86 7z m84 6 c2 -7 14 -6 35 2 25 9 35 9 47 -1 18 -15 22 -51 6 -51 -5 0
-10 7 -10 15 0 21 -24 29 -49 15 -17 -9 -21 -20 -21 -65 0 -42 -3 -55 -15 -55
-12 0 -15 15 -15 75 0 41 4 75 9 75 5 0 11 -5 13 -10z m208 -55 c0 -58 2 -65
20 -65 11 0 20 -4 20 -10 0 -5 -25 -10 -55 -10 -30 0 -55 5 -55 10 0 6 9 10
20 10 18 0 20 7 20 55 0 48 -2 55 -20 55 -11 0 -20 5 -20 10 0 6 16 10 35 10
l35 0 0 -65z m197 49 c2 -6 -7 -9 -25 -6 -36 5 -62 -19 -62 -57 0 -37 22 -54
60 -49 37 6 40 -9 3 -18 -45 -12 -77 14 -81 63 -4 54 24 86 70 81 17 -2 33 -8
35 -14z m233 7 c0 -5 13 -4 29 2 46 17 61 -2 61 -79 0 -36 -4 -64 -10 -64 -6
0 -10 27 -10 60 0 66 -12 80 -49 60 -17 -9 -21 -20 -21 -65 0 -30 -4 -55 -10
-55 -6 0 -10 32 -10 75 0 43 4 75 10 75 6 0 10 -4 10 -9z m238 -7 c17 -12 22
-25 22 -59 0 -47 -24 -75 -65 -75 -41 0 -65 28 -65 75 0 47 24 75 65 75 11 0
31 -7 43 -16z m320 0 c12 -8 22 -26 22 -40 0 -23 -3 -24 -55 -24 -58 0 -66 -8
-38 -35 11 -11 28 -15 50 -13 20 3 32 0 30 -6 -2 -6 -20 -12 -40 -14 -69 -6
-104 73 -55 125 25 27 54 29 86 7z m473 6 c16 -9 19 -22 19 -75 0 -37 -4 -65
-10 -65 -5 0 -10 4 -10 10 0 6 -10 5 -25 -2 -19 -8 -31 -8 -50 0 -49 22 -18
82 42 82 27 0 34 4 31 18 -2 12 -14 17 -38 19 -54 2 -56 3 -40 13 20 13 57 13
81 0z m139 -55 c0 -58 2 -65 20 -65 11 0 20 -4 20 -10 0 -5 -25 -10 -55 -10
-30 0 -55 5 -55 10 0 6 9 10 20 10 18 0 20 7 20 55 0 48 -2 55 -20 55 -11 0
-20 5 -20 10 0 6 16 10 35 10 l35 0 0 -65z m270 5 c0 -47 4 -62 16 -67 32 -12
49 11 52 71 4 83 22 68 22 -19 0 -43 -4 -75 -10 -75 -5 0 -10 5 -10 12 0 9 -3
9 -12 0 -7 -7 -21 -12 -33 -12 -12 0 -26 5 -33 12 -15 15 -16 138 -2 138 6 0
10 -27 10 -60z m162 50 c2 -7 14 -6 35 2 25 9 35 9 47 -1 18 -15 22 -51 6 -51
-5 0 -10 7 -10 15 0 21 -24 29 -49 15 -17 -9 -21 -20 -21 -65 0 -42 -3 -55
-15 -55 -12 0 -15 15 -15 75 0 41 4 75 9 75 5 0 11 -5 13 -10z m236 -6 c12 -8
22 -26 22 -40 0 -23 -3 -24 -55 -24 -58 0 -66 -8 -38 -35 11 -11 28 -15 50
-13 20 3 32 0 30 -6 -2 -6 -20 -12 -40 -14 -69 -6 -104 73 -55 125 25 27 54
29 86 7z m-3380 -107 c4 -20 -25 -34 -40 -19 -15 15 -1 44 19 40 10 -2 19 -11
21 -21z m992 -282 c0 -63 -4 -105 -10 -105 -5 0 -10 4 -10 9 0 5 -13 4 -29 -2
-42 -15 -71 11 -71 64 0 46 30 79 72 79 24 0 28 4 28 30 0 17 5 30 10 30 6 0
10 -42 10 -105z m125 85 c0 -8 -8 -16 -17 -18 -13 -2 -18 3 -18 18 0 15 5 20
18 18 9 -2 17 -10 17 -18z m1440 0 c0 -8 -8 -16 -17 -18 -13 -2 -18 3 -18 18
0 15 5 20 18 18 9 -2 17 -10 17 -18z m155 -75 c0 -88 1 -95 20 -95 11 0 20 -4
20 -10 0 -5 -25 -10 -55 -10 -30 0 -55 5 -55 10 0 6 9 10 20 10 18 0 20 7 20
85 0 78 -2 85 -20 85 -11 0 -20 5 -20 10 0 6 16 10 35 10 l35 0 0 -95z m-1140
60 c0 -21 5 -25 30 -25 17 0 30 -4 30 -10 0 -5 -14 -10 -31 -10 l-30 0 3 -52
c3 -49 5 -53 31 -56 36 -4 35 -22 -2 -22 -43 0 -61 23 -61 81 0 42 -3 49 -20
49 -11 0 -20 5 -20 10 0 6 9 10 20 10 13 0 20 7 20 18 0 10 3 22 7 25 13 14
23 6 23 -18z m-1718 -2 c29 -26 22 -59 -23 -108 l-42 -45 47 0 c25 0 46 -4 46
-10 0 -6 -28 -10 -65 -10 -36 0 -65 3 -65 6 0 4 21 29 46 56 35 37 45 55 42
76 -3 25 -6 27 -42 25 -33 -2 -36 -1 -26 12 17 20 59 19 82 -2z m505 1 c2 -6
-10 -9 -29 -6 -50 5 -73 -17 -73 -73 0 -56 23 -78 73 -73 33 4 43 -5 16 -16
-30 -11 -61 -6 -88 15 -22 17 -26 28 -26 70 0 66 32 102 87 97 20 -2 38 -8 40
-14z m1913 6 c0 -5 -18 -10 -40 -10 -39 0 -40 -1 -40 -35 0 -33 2 -35 35 -35
19 0 35 -4 35 -10 0 -5 -16 -10 -35 -10 -34 0 -35 -1 -35 -40 0 -29 -4 -40
-15 -40 -12 0 -15 17 -15 95 l0 95 55 0 c30 0 55 -4 55 -10z m-1772 -46 c17
-12 22 -25 22 -59 0 -47 -24 -75 -65 -75 -41 0 -65 28 -65 75 0 47 24 75 65
75 11 0 31 -7 43 -16z m160 0 c17 -12 22 -25 22 -59 0 -47 -24 -75 -65 -75
-41 0 -65 28 -65 75 0 47 24 75 65 75 11 0 31 -7 43 -16z m84 6 c2 -7 14 -6
35 2 25 9 35 9 47 -1 18 -15 22 -51 6 -51 -5 0 -10 7 -10 15 0 21 -24 29 -49
15 -17 -9 -21 -20 -21 -65 0 -42 -3 -55 -15 -55 -12 0 -15 15 -15 75 0 41 4
75 9 75 5 0 11 -5 13 -10z m368 -55 c0 -58 2 -65 20 -65 11 0 20 -4 20 -10 0
-5 -25 -10 -55 -10 -30 0 -55 5 -55 10 0 6 9 10 20 10 18 0 20 7 20 55 0 48
-2 55 -20 55 -11 0 -20 5 -20 10 0 6 16 10 35 10 l35 0 0 -65z m110 56 c0 -5
13 -4 29 2 46 17 61 -2 61 -79 0 -36 -4 -64 -10 -64 -6 0 -10 27 -10 60 0 66
-12 80 -49 60 -17 -9 -21 -20 -21 -65 0 -30 -4 -55 -10 -55 -6 0 -10 32 -10
75 0 43 4 75 10 75 6 0 10 -4 10 -9z m231 -1 c16 -9 19 -22 19 -75 0 -37 -4
-65 -10 -65 -5 0 -10 4 -10 10 0 6 -10 5 -25 -2 -19 -8 -31 -8 -50 0 -49 22
-18 82 42 82 27 0 34 4 31 18 -2 12 -14 17 -38 19 -54 2 -56 3 -40 13 20 13
57 13 81 0z m327 -6 c17 -12 22 -25 22 -59 0 -47 -24 -75 -65 -75 -41 0 -65
28 -65 75 0 47 24 75 65 75 11 0 31 -7 43 -16z m84 6 c2 -7 14 -6 35 2 25 9
35 9 47 -1 18 -15 22 -51 6 -51 -5 0 -10 7 -10 15 0 21 -24 29 -49 15 -17 -9
-21 -20 -21 -65 0 -42 -3 -55 -15 -55 -12 0 -15 15 -15 75 0 41 4 75 9 75 5 0
11 -5 13 -10z m549 0 c16 -9 19 -22 19 -75 0 -37 -4 -65 -10 -65 -5 0 -10 4
-10 10 0 6 -10 5 -25 -2 -19 -8 -31 -8 -50 0 -49 22 -18 82 42 82 27 0 34 4
31 18 -2 12 -14 17 -38 19 -54 2 -56 3 -40 13 20 13 57 13 81 0z m139 -55 c0
-58 2 -65 20 -65 11 0 20 -4 20 -10 0 -5 -25 -10 -55 -10 -30 0 -55 5 -55 10
0 6 9 10 20 10 18 0 20 7 20 55 0 48 -2 55 -20 55 -11 0 -20 5 -20 10 0 6 16
10 35 10 l35 0 0 -65z m270 5 c0 -47 4 -62 16 -67 32 -12 49 11 52 71 4 83 22
68 22 -19 0 -43 -4 -75 -10 -75 -5 0 -10 5 -10 12 0 9 -3 9 -12 0 -7 -7 -21
-12 -33 -12 -12 0 -26 5 -33 12 -15 15 -16 138 -2 138 6 0 10 -27 10 -60z
m162 50 c2 -7 14 -6 35 2 25 9 35 9 47 -1 18 -15 22 -51 6 -51 -5 0 -10 7 -10
15 0 21 -24 29 -49 15 -17 -9 -21 -20 -21 -65 0 -42 -3 -55 -15 -55 -12 0 -15
15 -15 75 0 41 4 75 9 75 5 0 11 -5 13 -10z m236 -6 c12 -8 22 -26 22 -40 0
-23 -3 -24 -55 -24 -58 0 -66 -8 -38 -35 11 -11 28 -15 50 -13 20 3 32 0 30
-6 -2 -6 -20 -12 -40 -14 -69 -6 -104 73 -55 125 25 27 54 29 86 7z m-3220
-107 c4 -20 -25 -34 -40 -19 -15 15 -1 44 19 40 10 -2 19 -11 21 -21z m3356
-213 c-47 -61 -41 -144 13 -206 9 -10 11 -18 4 -22 -5 -4 -22 10 -38 31 -24
31 -28 45 -28 103 0 58 4 72 28 103 16 21 33 35 38 32 5 -4 -3 -22 -17 -41z
m4172 -52 c4 -18 4 -51 1 -73 -6 -42 -52 -113 -68 -104 -5 4 3 22 17 41 37 47
42 109 15 162 -11 22 -25 44 -31 47 -6 4 -7 11 -3 17 10 17 62 -50 69 -90z
m-6216 -17 c0 -63 -4 -105 -10 -105 -5 0 -10 4 -10 9 0 5 -13 4 -29 -2 -42
-15 -71 11 -71 64 0 46 30 79 72 79 24 0 28 4 28 30 0 17 5 30 10 30 6 0 10
-42 10 -105z m440 70 c0 -24 -5 -35 -15 -35 -10 0 -15 11 -15 35 0 24 5 35 15
35 10 0 15 -11 15 -35z m645 15 c0 -8 -8 -16 -17 -18 -13 -2 -18 3 -18 18 0
15 5 20 18 18 9 -2 17 -10 17 -18z m155 -75 c0 -88 1 -95 20 -95 11 0 20 -4
20 -10 0 -5 -25 -10 -55 -10 -30 0 -55 5 -55 10 0 6 9 10 20 10 18 0 20 7 20
85 0 78 -2 85 -20 85 -11 0 -20 5 -20 10 0 6 16 10 35 10 l35 0 0 -95z m965
75 c0 -8 -8 -16 -17 -18 -13 -2 -18 3 -18 18 0 15 5 20 18 18 9 -2 17 -10 17
-18z m475 -75 c0 -88 1 -95 20 -95 11 0 20 -4 20 -10 0 -5 -25 -10 -55 -10
-30 0 -55 5 -55 10 0 6 9 10 20 10 18 0 20 7 20 85 0 78 -2 85 -20 85 -11 0
-20 5 -20 10 0 6 16 10 35 10 l35 0 0 -95z m360 -10 c0 -63 -4 -105 -10 -105
-5 0 -10 4 -10 9 0 5 -13 4 -29 -2 -42 -15 -71 11 -71 64 0 46 30 79 72 79 24
0 28 4 28 30 0 17 5 30 10 30 6 0 10 -42 10 -105z m125 85 c0 -8 -8 -16 -17
-18 -13 -2 -18 3 -18 18 0 15 5 20 18 18 9 -2 17 -10 17 -18z m745 -19 c0 -39
0 -39 29 -28 46 17 61 -2 61 -79 0 -36 -4 -64 -10 -64 -6 0 -10 27 -10 60 0
66 -12 80 -49 60 -17 -9 -21 -20 -21 -65 0 -30 -4 -55 -10 -55 -6 0 -10 42
-10 105 0 63 4 105 10 105 6 0 10 -18 10 -39z m1210 -66 c0 -63 -4 -105 -10
-105 -5 0 -10 4 -10 9 0 5 -13 4 -29 -2 -42 -15 -71 11 -71 64 0 46 30 79 72
79 24 0 28 4 28 30 0 17 5 30 10 30 6 0 10 -42 10 -105z m125 85 c0 -8 -8 -16
-17 -18 -13 -2 -18 3 -18 18 0 15 5 20 18 18 9 -2 17 -10 17 -18z m-1465 -15
c0 -21 5 -25 30 -25 17 0 30 -4 30 -10 0 -5 -14 -10 -31 -10 l-30 0 3 -52 c3
-49 5 -53 31 -56 36 -4 35 -22 -2 -22 -43 0 -61 23 -61 81 0 42 -3 49 -20 49
-11 0 -20 5 -20 10 0 6 9 10 20 10 13 0 20 7 20 18 0 10 3 22 7 25 13 14 23 6
23 -18z m1920 0 c0 -21 5 -25 30 -25 17 0 30 -4 30 -10 0 -5 -14 -10 -31 -10
l-30 0 3 -52 c3 -49 5 -53 31 -56 36 -4 35 -22 -2 -22 -43 0 -61 23 -61 81 0
42 -3 49 -20 49 -11 0 -20 5 -20 10 0 6 9 10 20 10 13 0 20 7 20 18 0 10 3 22
7 25 13 14 23 6 23 -18z m-7158 -2 c22 -20 23 -36 3 -53 -14 -12 -13 -15 5
-32 26 -24 25 -34 -5 -63 -25 -25 -95 -36 -95 -15 0 6 15 10 33 10 36 0 57 15
57 41 0 18 -19 29 -51 29 -29 0 -22 18 9 22 21 2 27 8 27 28 0 22 -4 25 -38
25 -37 0 -49 9 -24 18 25 11 61 6 79 -10z m508 7 c0 -5 -11 -10 -25 -10 -25 0
-25 -1 -25 -85 0 -69 -3 -85 -15 -85 -12 0 -15 16 -15 85 0 84 0 85 -25 85
-14 0 -25 5 -25 10 0 6 28 10 65 10 37 0 65 -4 65 -10z m1750 0 c0 -5 -18 -10
-40 -10 -39 0 -40 -1 -40 -35 0 -33 2 -35 35 -35 19 0 35 -4 35 -10 0 -5 -16
-10 -35 -10 -34 0 -35 -1 -35 -40 0 -29 -4 -40 -15 -40 -12 0 -15 17 -15 95
l0 95 55 0 c30 0 55 -4 55 -10z m-1706 -46 c3 -9 6 -33 6 -55 0 -49 17 -51 26
-4 8 42 23 41 38 -2 17 -48 26 -50 26 -7 0 49 9 84 22 84 10 0 6 -50 -8 -122
-8 -40 -30 -35 -45 10 l-13 37 -14 -37 c-18 -47 -38 -49 -45 -5 -17 97 -18
117 -9 117 5 0 13 -7 16 -16z m254 0 c17 -12 22 -25 22 -59 0 -47 -24 -75 -65
-75 -41 0 -65 28 -65 75 0 47 24 75 65 75 11 0 31 -7 43 -16z m242 7 c0 -5 13
-4 29 2 46 17 61 -2 61 -79 0 -36 -4 -64 -10 -64 -6 0 -10 27 -10 60 0 66 -12
80 -49 60 -17 -9 -21 -20 -21 -65 0 -30 -4 -55 -10 -55 -6 0 -10 32 -10 75 0
43 4 75 10 75 6 0 10 -4 10 -9z m238 -7 c17 -12 22 -25 22 -59 0 -47 -24 -75
-65 -75 -41 0 -65 28 -65 75 0 47 24 75 65 75 11 0 31 -7 43 -16z m320 0 c12
-8 22 -26 22 -40 0 -23 -3 -24 -55 -24 -58 0 -66 -8 -38 -35 11 -11 28 -15 50
-13 20 3 32 0 30 -6 -2 -6 -20 -12 -40 -14 -69 -6 -104 73 -55 125 25 27 54
29 86 7z m159 1 c2 -5 -14 -10 -34 -10 -47 0 -52 -24 -8 -38 40 -13 55 -26 55
-48 0 -24 -33 -41 -72 -37 -48 5 -44 23 4 23 52 0 59 23 13 38 -16 5 -36 14
-42 20 -19 14 -16 44 5 56 21 13 74 10 79 -4z m634 5 c16 -9 19 -22 19 -75 0
-37 -4 -65 -10 -65 -5 0 -10 4 -10 10 0 6 -10 5 -25 -2 -19 -8 -31 -8 -50 0
-49 22 -18 82 42 82 27 0 34 4 31 18 -2 12 -14 17 -38 19 -54 2 -56 3 -40 13
20 13 57 13 81 0z m139 -55 c0 -58 2 -65 20 -65 11 0 20 -4 20 -10 0 -5 -25
-10 -55 -10 -30 0 -55 5 -55 10 0 6 9 10 20 10 18 0 20 7 20 55 0 48 -2 55
-20 55 -11 0 -20 5 -20 10 0 6 16 10 35 10 l35 0 0 -65z m270 5 c0 -47 4 -62
16 -67 32 -12 49 11 52 71 4 83 22 68 22 -19 0 -43 -4 -75 -10 -75 -5 0 -10 5
-10 12 0 9 -3 9 -12 0 -7 -7 -21 -12 -33 -12 -12 0 -26 5 -33 12 -15 15 -16
138 -2 138 6 0 10 -27 10 -60z m162 50 c2 -7 14 -6 35 2 25 9 35 9 47 -1 18
-15 22 -51 6 -51 -5 0 -10 7 -10 15 0 21 -24 29 -49 15 -17 -9 -21 -20 -21
-65 0 -42 -3 -55 -15 -55 -12 0 -15 15 -15 75 0 41 4 75 9 75 5 0 11 -5 13
-10z m236 -6 c12 -8 22 -26 22 -40 0 -23 -3 -24 -55 -24 -58 0 -66 -8 -38 -35
11 -11 28 -15 50 -13 20 3 32 0 30 -6 -2 -6 -20 -12 -40 -14 -69 -6 -104 73
-55 125 25 27 54 29 86 7z m452 -49 c0 -58 2 -65 20 -65 11 0 20 -4 20 -10 0
-5 -25 -10 -55 -10 -30 0 -55 5 -55 10 0 6 9 10 20 10 18 0 20 7 20 55 0 48
-2 55 -20 55 -11 0 -20 5 -20 10 0 6 16 10 35 10 l35 0 0 -65z m110 56 c0 -5
13 -4 29 2 46 17 61 -2 61 -79 0 -36 -4 -64 -10 -64 -6 0 -10 27 -10 60 0 66
-12 80 -49 60 -17 -9 -21 -20 -21 -65 0 -30 -4 -55 -10 -55 -6 0 -10 32 -10
75 0 43 4 75 10 75 6 0 10 -4 10 -9z m247 -7 c2 -6 -7 -9 -25 -6 -36 5 -62
-19 -62 -57 0 -37 22 -54 60 -49 37 6 40 -9 3 -18 -45 -12 -77 14 -81 63 -4
54 24 86 70 81 17 -2 33 -8 35 -14z m233 -44 c0 -47 4 -62 16 -67 32 -12 49
11 52 71 4 83 22 68 22 -19 0 -43 -4 -75 -10 -75 -5 0 -10 5 -10 12 0 9 -3 9
-12 0 -7 -7 -21 -12 -33 -12 -12 0 -26 5 -33 12 -15 15 -16 138 -2 138 6 0 10
-27 10 -60z m370 -5 c0 -58 2 -65 20 -65 11 0 20 -4 20 -10 0 -5 -25 -10 -55
-10 -30 0 -55 5 -55 10 0 6 9 10 20 10 18 0 20 7 20 55 0 48 -2 55 -20 55 -11
0 -20 5 -20 10 0 6 16 10 35 10 l35 0 0 -65z m110 56 c0 -5 13 -4 29 2 46 17
61 -2 61 -79 0 -36 -4 -64 -10 -64 -6 0 -10 27 -10 60 0 66 -12 80 -49 60 -17
-9 -21 -20 -21 -65 0 -30 -4 -55 -10 -55 -6 0 -10 32 -10 75 0 43 4 75 10 75
6 0 10 -4 10 -9z m270 -1 c0 -5 -4 -10 -10 -10 -5 0 -10 -11 -10 -24 0 -35
-27 -58 -64 -54 -22 2 -31 -1 -31 -12 0 -10 14 -17 45 -20 52 -6 70 -15 70
-35 0 -35 -78 -58 -121 -35 -17 10 -18 19 -13 93 4 59 10 85 21 95 20 14 113
16 113 2z m608 -6 c12 -8 22 -26 22 -40 0 -23 -3 -24 -55 -24 -58 0 -66 -8
-38 -35 11 -11 28 -15 50 -13 20 3 32 0 30 -6 -2 -6 -20 -12 -40 -14 -69 -6
-104 73 -55 125 25 27 54 29 86 7z m329 0 c2 -6 -7 -9 -25 -6 -36 5 -62 -19
-62 -57 0 -37 22 -54 60 -49 37 6 40 -9 3 -18 -45 -12 -77 14 -81 63 -4 54 24
86 70 81 17 -2 33 -8 35 -14z m151 0 c17 -12 22 -25 22 -59 0 -47 -24 -75 -65
-75 -41 0 -65 28 -65 75 0 47 24 75 65 75 11 0 31 -7 43 -16z m160 0 c17 -12
22 -25 22 -59 0 -47 -24 -75 -65 -75 -41 0 -65 28 -65 75 0 47 24 75 65 75 11
0 31 -7 43 -16z m84 6 c2 -7 14 -6 35 2 25 9 35 9 47 -1 18 -15 22 -51 6 -51
-5 0 -10 7 -10 15 0 21 -24 29 -49 15 -17 -9 -21 -20 -21 -65 0 -42 -3 -55
-15 -55 -12 0 -15 15 -15 75 0 41 4 75 9 75 5 0 11 -5 13 -10z m368 -55 c0
-58 2 -65 20 -65 11 0 20 -4 20 -10 0 -5 -25 -10 -55 -10 -30 0 -55 5 -55 10
0 6 9 10 20 10 18 0 20 7 20 55 0 48 -2 55 -20 55 -11 0 -20 5 -20 10 0 6 16
10 35 10 l35 0 0 -65z m110 56 c0 -5 13 -4 29 2 46 17 61 -2 61 -79 0 -36 -4
-64 -10 -64 -6 0 -10 27 -10 60 0 66 -12 80 -49 60 -17 -9 -21 -20 -21 -65 0
-30 -4 -55 -10 -55 -6 0 -10 32 -10 75 0 43 4 75 10 75 6 0 10 -4 10 -9z m231
-1 c16 -9 19 -22 19 -75 0 -37 -4 -65 -10 -65 -5 0 -10 4 -10 10 0 6 -10 5
-25 -2 -19 -8 -31 -8 -50 0 -49 22 -18 82 42 82 27 0 34 4 31 18 -2 12 -14 17
-38 19 -54 2 -56 3 -40 13 20 13 57 13 81 0z m327 -6 c17 -12 22 -25 22 -59 0
-47 -24 -75 -65 -75 -41 0 -65 28 -65 75 0 47 24 75 65 75 11 0 31 -7 43 -16z
m84 6 c2 -7 14 -6 35 2 25 9 35 9 47 -1 18 -15 22 -51 6 -51 -5 0 -10 7 -10
15 0 21 -24 29 -49 15 -17 -9 -21 -20 -21 -65 0 -42 -3 -55 -15 -55 -12 0 -15
15 -15 75 0 41 4 75 9 75 5 0 11 -5 13 -10z m-7304 -113 c4 -20 -25 -34 -40
-19 -15 15 -1 44 19 40 10 -2 19 -11 21 -21z m3036 -213 c-47 -61 -41 -144 13
-206 9 -10 11 -18 4 -22 -5 -4 -22 10 -38 31 -24 31 -28 45 -28 103 0 58 4 72
28 103 16 21 33 35 38 32 5 -4 -3 -22 -17 -41z m2732 -52 c4 -18 4 -51 1 -73
-6 -42 -52 -113 -68 -104 -5 4 3 22 17 41 37 47 42 109 15 162 -11 22 -25 44
-31 47 -6 4 -7 11 -3 17 10 17 62 -50 69 -90z m-5346 49 c0 -39 0 -39 29 -28
46 17 61 -2 61 -79 0 -36 -4 -64 -10 -64 -6 0 -10 27 -10 60 0 66 -12 80 -49
60 -17 -9 -21 -20 -21 -65 0 -30 -4 -55 -10 -55 -6 0 -10 42 -10 105 0 63 4
105 10 105 6 0 10 -18 10 -39z m1170 -56 c0 -88 1 -95 20 -95 11 0 20 -4 20
-10 0 -5 -25 -10 -55 -10 -30 0 -55 5 -55 10 0 6 9 10 20 10 18 0 20 7 20 85
0 78 -2 85 -20 85 -11 0 -20 5 -20 10 0 6 16 10 35 10 l35 0 0 -95z m645 75
c0 -8 -8 -16 -17 -18 -13 -2 -18 3 -18 18 0 15 5 20 18 18 9 -2 17 -10 17 -18z
m265 -19 c0 -39 0 -39 29 -28 46 17 61 -2 61 -79 0 -36 -4 -64 -10 -64 -6 0
-10 27 -10 60 0 66 -12 80 -49 60 -17 -9 -21 -20 -21 -65 0 -30 -4 -55 -10
-55 -6 0 -10 42 -10 105 0 63 4 105 10 105 6 0 10 -18 10 -39z m1010 -56 c0
-88 1 -95 20 -95 11 0 20 -4 20 -10 0 -5 -25 -10 -55 -10 -30 0 -55 5 -55 10
0 6 9 10 20 10 18 0 20 7 20 85 0 78 -2 85 -20 85 -11 0 -20 5 -20 10 0 6 16
10 35 10 l35 0 0 -95z m160 0 c0 -88 1 -95 20 -95 11 0 20 -4 20 -10 0 -5 -25
-10 -55 -10 -30 0 -55 5 -55 10 0 6 9 10 20 10 18 0 20 7 20 85 0 78 -2 85
-20 85 -11 0 -20 5 -20 10 0 6 16 10 35 10 l35 0 0 -95z m430 55 c0 -37 2 -40
19 -30 47 24 81 -1 81 -61 0 -53 -28 -81 -78 -77 l-37 3 -3 103 c-2 65 1 102
8 102 5 0 10 -18 10 -40z m570 -65 c0 -63 -4 -105 -10 -105 -5 0 -10 4 -10 9
0 5 -13 4 -29 -2 -42 -15 -71 11 -71 64 0 46 30 79 72 79 24 0 28 4 28 30 0
17 5 30 10 30 6 0 10 -42 10 -105z m340 96 c0 -6 -15 -11 -32 -13 -28 -2 -34
-8 -36 -30 -3 -25 0 -28 27 -28 17 0 31 -4 31 -10 0 -5 -13 -10 -30 -10 -30 0
-30 -1 -30 -55 0 -42 -3 -55 -15 -55 -12 0 -15 13 -15 55 0 52 -1 55 -25 55
-14 0 -25 5 -25 10 0 6 11 10 25 10 19 0 25 5 25 22 0 33 29 58 67 58 18 0 33
-4 33 -9z m420 -86 c0 -88 1 -95 20 -95 11 0 20 -4 20 -10 0 -5 -25 -10 -55
-10 -30 0 -55 5 -55 10 0 6 9 10 20 10 18 0 20 7 20 85 0 78 -2 85 -20 85 -11
0 -20 5 -20 10 0 6 16 10 35 10 l35 0 0 -95z m-3060 60 c0 -21 5 -25 30 -25
17 0 30 -4 30 -10 0 -5 -14 -10 -31 -10 l-30 0 3 -52 c3 -49 5 -53 31 -56 36
-4 35 -22 -2 -22 -43 0 -61 23 -61 81 0 42 -3 49 -20 49 -11 0 -20 5 -20 10 0
6 9 10 20 10 13 0 20 7 20 18 0 10 3 22 7 25 13 14 23 6 23 -18z m3200 0 c0
-21 5 -25 30 -25 17 0 30 -4 30 -10 0 -5 -14 -10 -31 -10 l-30 0 3 -52 c3 -49
5 -53 31 -56 36 -4 35 -22 -2 -22 -43 0 -61 23 -61 81 0 42 -3 49 -20 49 -11
0 -20 5 -20 10 0 6 9 10 20 10 13 0 20 7 20 18 0 10 3 22 7 25 13 14 23 6 23
-18z m-5720 -50 c0 -58 2 -65 20 -65 11 0 20 -4 20 -10 0 -5 -9 -10 -20 -10
-13 0 -20 -7 -20 -20 0 -11 -4 -20 -10 -20 -5 0 -10 9 -10 20 0 17 -7 20 -45
20 -29 0 -45 4 -45 13 0 22 79 137 95 137 12 0 15 -13 15 -65z m507 49 c2 -6
-10 -9 -29 -6 -50 5 -73 -17 -73 -73 0 -56 23 -78 73 -73 33 4 43 -5 16 -16
-30 -11 -61 -6 -88 15 -22 17 -26 28 -26 70 0 66 32 102 87 97 20 -2 38 -8 40
-14z m1098 -54 c35 -104 38 -120 20 -120 -8 0 -15 9 -15 20 0 17 -7 20 -44 20
-36 0 -46 -4 -51 -20 -3 -11 -12 -20 -20 -20 -10 0 -5 24 18 95 27 80 35 95
51 93 14 -2 25 -21 41 -68z m1766 49 c19 -19 19 -22 5 -44 -13 -20 -13 -25 -1
-35 22 -18 18 -57 -7 -74 -12 -9 -39 -16 -60 -16 l-38 0 0 95 0 95 40 0 c27 0
47 -7 61 -21z m-2570 -29 c16 -9 19 -22 19 -75 0 -37 -4 -65 -10 -65 -5 0 -10
4 -10 10 0 6 -10 5 -25 -2 -19 -8 -31 -8 -50 0 -49 22 -18 82 42 82 27 0 34 4
31 18 -2 12 -14 17 -38 19 -54 2 -56 3 -40 13 20 13 57 13 81 0z m89 1 c0 -5
13 -4 29 2 46 17 61 -2 61 -79 0 -36 -4 -64 -10 -64 -6 0 -10 27 -10 60 0 66
-12 80 -49 60 -17 -9 -21 -20 -21 -65 0 -30 -4 -55 -10 -55 -6 0 -10 32 -10
75 0 43 4 75 10 75 6 0 10 -4 10 -9z m270 -1 c0 -5 -4 -10 -10 -10 -5 0 -10
-11 -10 -24 0 -35 -27 -58 -64 -54 -22 2 -31 -1 -31 -12 0 -10 14 -17 45 -20
52 -6 70 -15 70 -35 0 -35 -78 -58 -121 -35 -17 10 -18 19 -13 93 4 59 10 85
21 95 20 14 113 16 113 2z m128 -6 c12 -8 22 -26 22 -40 0 -23 -3 -24 -55 -24
-58 0 -66 -8 -38 -35 11 -11 28 -15 50 -13 20 3 32 0 30 -6 -2 -6 -20 -12 -40
-14 -69 -6 -104 73 -55 125 25 27 54 29 86 7z m672 6 c0 -5 -4 -10 -10 -10 -5
0 -10 -11 -10 -24 0 -35 -27 -58 -64 -54 -22 2 -31 -1 -31 -12 0 -10 14 -17
45 -20 52 -6 70 -15 70 -35 0 -35 -78 -58 -121 -35 -17 10 -18 19 -13 93 4 59
10 85 21 95 20 14 113 16 113 2z m128 -6 c17 -12 22 -25 22 -59 0 -47 -24 -75
-65 -75 -41 0 -65 28 -65 75 0 47 24 75 65 75 11 0 31 -7 43 -16z m84 6 c2 -7
14 -6 35 2 25 9 35 9 47 -1 18 -15 22 -51 6 -51 -5 0 -10 7 -10 15 0 21 -24
29 -49 15 -17 -9 -21 -20 -21 -65 0 -42 -3 -55 -15 -55 -12 0 -15 15 -15 75 0
41 4 75 9 75 5 0 11 -5 13 -10z m208 -55 c0 -58 2 -65 20 -65 11 0 20 -4 20
-10 0 -5 -25 -10 -55 -10 -30 0 -55 5 -55 10 0 6 9 10 20 10 18 0 20 7 20 55
0 48 -2 55 -20 55 -11 0 -20 5 -20 10 0 6 16 10 35 10 l35 0 0 -65z m410 55
c0 -6 8 -5 19 2 15 9 23 9 33 0 11 -8 17 -9 26 0 6 6 18 8 26 5 13 -5 16 -22
16 -77 0 -40 -4 -70 -10 -70 -6 0 -10 28 -10 65 0 36 -4 65 -9 65 -14 0 -21
-27 -21 -81 0 -37 -4 -49 -15 -49 -12 0 -15 14 -15 65 0 36 -4 65 -9 65 -14 0
-21 -27 -21 -81 0 -37 -4 -49 -15 -49 -12 0 -15 15 -15 75 0 43 4 75 10 75 6
0 10 -5 10 -10z m660 -50 c0 -47 4 -62 16 -67 32 -12 49 11 52 71 4 83 22 68
22 -19 0 -43 -4 -75 -10 -75 -5 0 -10 5 -10 12 0 9 -3 9 -12 0 -7 -7 -21 -12
-33 -12 -12 0 -26 5 -33 12 -15 15 -16 138 -2 138 6 0 10 -27 10 -60z m491 1
c11 -30 21 -56 23 -58 2 -2 12 20 21 49 19 56 31 76 41 65 9 -9 -56 -167 -78
-189 -19 -19 -58 -25 -58 -8 0 6 9 10 20 10 40 0 44 38 11 118 -25 60 -28 73
-14 70 9 -2 24 -25 34 -57z m480 0 c11 -30 21 -56 23 -58 2 -2 12 20 21 49 19
56 31 76 41 65 9 -9 -56 -167 -78 -189 -19 -19 -58 -25 -58 -8 0 6 9 10 20 10
40 0 44 38 11 118 -25 60 -28 73 -14 70 9 -2 24 -25 34 -57z m547 43 c12 -8
22 -26 22 -40 0 -23 -3 -24 -55 -24 -58 0 -66 -8 -38 -35 11 -11 28 -15 50
-13 20 3 32 0 30 -6 -2 -6 -20 -12 -40 -14 -69 -6 -104 73 -55 125 25 27 54
29 86 7z m313 6 c16 -9 19 -22 19 -75 0 -37 -4 -65 -10 -65 -5 0 -10 4 -10 10
0 6 -10 5 -25 -2 -19 -8 -31 -8 -50 0 -49 22 -18 82 42 82 27 0 34 4 31 18 -2
12 -14 17 -38 19 -54 2 -56 3 -40 13 20 13 57 13 81 0z m89 -50 c0 -47 4 -62
16 -67 32 -12 49 11 52 71 4 83 22 68 22 -19 0 -43 -4 -75 -10 -75 -5 0 -10 5
-10 12 0 9 -3 9 -12 0 -7 -7 -21 -12 -33 -12 -12 0 -26 5 -33 12 -15 15 -16
138 -2 138 6 0 10 -27 10 -60z m-5222 -63 c4 -20 -25 -34 -40 -19 -15 15 -1
44 19 40 10 -2 19 -11 21 -21z m3996 -213 c-47 -61 -41 -144 13 -206 9 -10 11
-18 4 -22 -5 -4 -22 10 -38 31 -24 31 -28 45 -28 103 0 58 4 72 28 103 16 21
33 35 38 32 5 -4 -3 -22 -17 -41z m1932 -52 c4 -18 4 -51 1 -73 -6 -42 -52
-113 -68 -104 -5 4 3 22 17 41 37 47 42 109 15 162 -11 22 -25 44 -31 47 -6 4
-7 11 -3 17 10 17 62 -50 69 -90z m-5506 49 c0 -39 0 -39 29 -28 46 17 61 -2
61 -79 0 -36 -4 -64 -10 -64 -6 0 -10 27 -10 60 0 66 -12 80 -49 60 -17 -9
-21 -20 -21 -65 0 -30 -4 -55 -10 -55 -6 0 -10 42 -10 105 0 63 4 105 10 105
6 0 10 -18 10 -39z m1440 -1 c0 -37 2 -40 19 -30 47 24 81 -1 81 -61 0 -53
-28 -81 -78 -77 l-37 3 -3 103 c-2 65 1 102 8 102 5 0 10 -18 10 -40z m910 31
c0 -6 -15 -11 -32 -13 -28 -2 -34 -8 -36 -30 -3 -25 0 -28 27 -28 17 0 31 -4
31 -10 0 -5 -13 -10 -30 -10 -30 0 -30 -1 -30 -55 0 -42 -3 -55 -15 -55 -12 0
-15 13 -15 55 0 52 -1 55 -25 55 -14 0 -25 5 -25 10 0 6 11 10 25 10 19 0 25
5 25 22 0 33 29 58 67 58 18 0 33 -4 33 -9z m620 -96 c0 -63 -4 -105 -10 -105
-5 0 -10 4 -10 9 0 5 -13 4 -29 -2 -42 -15 -71 11 -71 64 0 46 30 79 72 79 24
0 28 4 28 30 0 17 5 30 10 30 6 0 10 -42 10 -105z m-3520 75 c0 -5 -20 -10
-45 -10 -43 0 -45 -1 -45 -30 0 -27 3 -30 30 -30 29 0 70 -29 70 -50 0 -25
-50 -60 -85 -60 -19 0 -35 5 -35 10 0 6 15 10 33 10 36 0 57 15 57 41 0 20
-20 29 -61 29 -28 0 -29 1 -29 50 l0 50 55 0 c30 0 55 -4 55 -10z m487 -6 c2
-6 -10 -9 -29 -6 -50 5 -73 -17 -73 -73 0 -56 23 -78 73 -73 33 4 43 -5 16
-16 -30 -11 -61 -6 -88 15 -22 17 -26 28 -26 70 0 66 32 102 87 97 20 -2 38
-8 40 -14z m3830 -7 c8 -8 18 -35 20 -60 5 -41 2 -49 -25 -77 -24 -24 -39 -30
-71 -30 l-41 0 0 96 0 97 51 -5 c28 -3 57 -12 66 -21z m163 13 c0 -5 -18 -10
-40 -10 -38 0 -40 -2 -40 -30 0 -28 2 -30 40 -30 22 0 40 -4 40 -10 0 -5 -18
-10 -40 -10 -39 0 -40 -1 -40 -35 0 -34 1 -35 40 -35 22 0 40 -4 40 -10 0 -5
-25 -10 -55 -10 l-55 0 0 95 0 95 55 0 c30 0 55 -4 55 -10z m160 0 c0 -5 -18
-10 -40 -10 -39 0 -40 -1 -40 -35 0 -33 2 -35 35 -35 19 0 35 -4 35 -10 0 -5
-16 -10 -35 -10 -34 0 -35 -1 -35 -40 0 -29 -4 -40 -15 -40 -12 0 -15 17 -15
95 l0 95 55 0 c30 0 55 -4 55 -10z m145 -60 c35 -104 38 -120 20 -120 -8 0
-15 9 -15 20 0 17 -7 20 -44 20 -36 0 -46 -4 -51 -20 -3 -11 -12 -20 -20 -20
-10 0 -5 24 18 95 27 80 35 95 51 93 14 -2 25 -21 41 -68z m75 -3 c0 -77 9
-97 45 -97 36 0 45 20 45 97 0 42 4 73 10 73 6 0 10 -33 10 -79 0 -71 -2 -82
-22 -95 -29 -21 -67 -20 -90 1 -14 13 -18 31 -18 95 0 45 4 78 10 78 6 0 10
-31 10 -73z m180 -12 l0 -85 40 0 c22 0 40 -4 40 -10 0 -5 -22 -10 -50 -10
l-50 0 0 95 c0 57 4 95 10 95 6 0 10 -35 10 -85z m250 75 c0 -5 -11 -10 -25
-10 -25 0 -25 -1 -25 -85 0 -69 -3 -85 -15 -85 -12 0 -15 16 -15 85 0 84 0 85
-25 85 -14 0 -25 5 -25 10 0 6 28 10 65 10 37 0 65 -4 65 -10z m610 -55 c0
-58 2 -65 20 -65 11 0 20 -4 20 -10 0 -5 -9 -10 -20 -10 -13 0 -20 -7 -20 -20
0 -11 -4 -20 -10 -20 -5 0 -10 9 -10 20 0 17 -7 20 -45 20 -29 0 -45 4 -45 13
0 22 79 137 95 137 12 0 15 -13 15 -65z m-5119 15 c16 -9 19 -22 19 -75 0 -37
-4 -65 -10 -65 -5 0 -10 4 -10 10 0 6 -10 5 -25 -2 -19 -8 -31 -8 -50 0 -49
22 -18 82 42 82 27 0 34 4 31 18 -2 12 -14 17 -38 19 -54 2 -56 3 -40 13 20
13 57 13 81 0z m89 1 c0 -5 13 -4 29 2 46 17 61 -2 61 -79 0 -36 -4 -64 -10
-64 -6 0 -10 27 -10 60 0 66 -12 80 -49 60 -17 -9 -21 -20 -21 -65 0 -30 -4
-55 -10 -55 -6 0 -10 32 -10 75 0 43 4 75 10 75 6 0 10 -4 10 -9z m270 -1 c0
-5 -4 -10 -10 -10 -5 0 -10 -11 -10 -24 0 -35 -27 -58 -64 -54 -22 2 -31 -1
-31 -12 0 -10 14 -17 45 -20 52 -6 70 -15 70 -35 0 -35 -78 -58 -121 -35 -17
10 -18 19 -13 93 4 59 10 85 21 95 20 14 113 16 113 2z m128 -6 c12 -8 22 -26
22 -40 0 -23 -3 -24 -55 -24 -58 0 -66 -8 -38 -35 11 -11 28 -15 50 -13 20 3
32 0 30 -6 -2 -6 -20 -12 -40 -14 -69 -6 -104 73 -55 125 25 27 54 29 86 7z
m242 7 c0 -5 13 -4 29 2 46 17 61 -2 61 -79 0 -36 -4 -64 -10 -64 -6 0 -10 27
-10 60 0 66 -12 80 -49 60 -17 -9 -21 -20 -21 -65 0 -30 -4 -55 -10 -55 -6 0
-10 32 -10 75 0 43 4 75 10 75 6 0 10 -4 10 -9z m160 -51 c0 -47 4 -62 16 -67
32 -12 49 11 52 71 4 83 22 68 22 -19 0 -43 -4 -75 -10 -75 -5 0 -10 5 -10 12
0 9 -3 9 -12 0 -7 -7 -21 -12 -33 -12 -12 0 -26 5 -33 12 -15 15 -16 138 -2
138 6 0 10 -27 10 -60z m140 50 c0 -6 8 -5 19 2 15 9 23 9 33 0 11 -8 17 -9
26 0 6 6 18 8 26 5 13 -5 16 -22 16 -77 0 -40 -4 -70 -10 -70 -6 0 -10 28 -10
65 0 36 -4 65 -9 65 -14 0 -21 -27 -21 -81 0 -37 -4 -49 -15 -49 -12 0 -15 14
-15 65 0 36 -4 65 -9 65 -14 0 -21 -27 -21 -81 0 -37 -4 -49 -15 -49 -12 0
-15 15 -15 75 0 43 4 75 10 75 6 0 10 -5 10 -10z m418 -6 c12 -8 22 -26 22
-40 0 -23 -3 -24 -55 -24 -58 0 -66 -8 -38 -35 11 -11 28 -15 50 -13 20 3 32
0 30 -6 -2 -6 -20 -12 -40 -14 -69 -6 -104 73 -55 125 25 27 54 29 86 7z m84
6 c2 -7 14 -6 35 2 25 9 35 9 47 -1 18 -15 22 -51 6 -51 -5 0 -10 7 -10 15 0
21 -24 29 -49 15 -17 -9 -21 -20 -21 -65 0 -42 -3 -55 -15 -55 -12 0 -15 15
-15 75 0 41 4 75 9 75 5 0 11 -5 13 -10z m396 -6 c17 -12 22 -25 22 -59 0 -47
-24 -75 -65 -75 -41 0 -65 28 -65 75 0 47 24 75 65 75 11 0 31 -7 43 -16z
m402 7 c0 -5 13 -4 29 2 46 17 61 -2 61 -79 0 -36 -4 -64 -10 -64 -6 0 -10 27
-10 60 0 66 -12 80 -49 60 -17 -9 -21 -20 -21 -65 0 -30 -4 -55 -10 -55 -6 0
-10 32 -10 75 0 43 4 75 10 75 6 0 10 -4 10 -9z m238 -7 c17 -12 22 -25 22
-59 0 -47 -24 -75 -65 -75 -41 0 -65 28 -65 75 0 47 24 75 65 75 11 0 31 -7
43 -16z m320 0 c12 -8 22 -26 22 -40 0 -23 -3 -24 -55 -24 -58 0 -66 -8 -38
-35 11 -11 28 -15 50 -13 20 3 32 0 30 -6 -2 -6 -20 -12 -40 -14 -69 -6 -104
73 -55 125 25 27 54 29 86 7z m159 1 c2 -5 -14 -10 -34 -10 -47 0 -52 -24 -8
-38 40 -13 55 -26 55 -48 0 -24 -33 -41 -72 -37 -48 5 -44 23 4 23 52 0 59 23
13 38 -16 5 -36 14 -42 20 -19 14 -16 44 5 56 21 13 74 10 79 -4z m1773 -35
c0 -6 -27 -10 -60 -10 -33 0 -60 4 -60 10 0 6 27 10 60 10 33 0 60 -4 60 -10z
m0 -50 c0 -6 -27 -10 -60 -10 -33 0 -60 4 -60 10 0 6 27 10 60 10 33 0 60 -4
60 -10z m-5472 -23 c4 -20 -25 -34 -40 -19 -15 15 -1 44 19 40 10 -2 19 -11
21 -21z m637 -197 c0 -8 -8 -16 -17 -18 -13 -2 -18 3 -18 18 0 15 5 20 18 18
9 -2 17 -10 17 -18z m135 -15 c0 -21 5 -25 30 -25 17 0 30 -4 30 -10 0 -5 -14
-10 -31 -10 l-30 0 3 -52 c3 -49 5 -53 31 -56 36 -4 35 -22 -2 -22 -43 0 -61
23 -61 81 0 42 -3 49 -20 49 -11 0 -20 5 -20 10 0 6 9 10 20 10 13 0 20 7 20
18 0 10 3 22 7 25 13 14 23 6 23 -18z m-900 5 c0 -5 -12 -10 -27 -10 -34 0
-46 -8 -61 -37 -11 -20 -10 -21 26 -16 28 4 43 0 55 -12 24 -24 22 -71 -5 -89
-55 -39 -108 -4 -108 70 0 37 5 51 29 75 29 29 91 42 91 19z m480 0 c0 -5 -18
-10 -40 -10 -38 0 -40 -2 -40 -30 0 -28 2 -30 40 -30 22 0 40 -4 40 -10 0 -5
-18 -10 -40 -10 -39 0 -40 -1 -40 -35 0 -34 1 -35 40 -35 22 0 40 -4 40 -10 0
-5 -25 -10 -55 -10 l-55 0 0 95 0 95 55 0 c30 0 55 -4 55 -10z m86 -57 l21
-27 18 27 c9 15 24 27 32 27 10 0 7 -10 -11 -37 -27 -39 -27 -40 18 -90 19
-23 19 -23 0 -23 -11 0 -27 13 -38 31 l-18 31 -22 -31 c-11 -17 -27 -31 -33
-31 -18 0 -16 7 12 44 l25 33 -25 33 c-29 39 -29 40 -13 40 7 0 22 -12 34 -27z
m194 -38 c0 -58 2 -65 20 -65 11 0 20 -4 20 -10 0 -5 -25 -10 -55 -10 -30 0
-55 5 -55 10 0 6 9 10 20 10 18 0 20 7 20 55 0 48 -2 55 -20 55 -11 0 -20 5
-20 10 0 6 16 10 35 10 l35 0 0 -65z m-632 -58 c4 -20 -25 -34 -40 -19 -15 15
-1 44 19 40 10 -2 19 -11 21 -21z"/>
<path d="M2136 2534 c-18 -18 -20 -47 -6 -75 23 -42 70 -5 70 54 0 32 -3 37
-24 37 -14 0 -32 -7 -40 -16z"/>
<path d="M690 2530 c-10 -19 -8 -20 35 -20 46 0 54 7 33 28 -19 19 -56 14 -68
-8z"/>
<path d="M1010 2530 c-10 -19 -8 -20 35 -20 46 0 54 7 33 28 -19 19 -56 14
-68 -8z"/>
<path d="M1972 2538 c-7 -7 -12 -26 -12 -43 0 -36 15 -55 45 -55 30 0 45 19
45 55 0 36 -15 55 -45 55 -12 0 -26 -5 -33 -12z"/>
<path d="M2290 2530 c-10 -19 -8 -20 35 -20 46 0 54 7 33 28 -19 19 -56 14
-68 -8z"/>
<path d="M2774 2475 c-8 -19 3 -35 25 -35 20 0 41 19 41 37 0 18 -59 17 -66
-2z"/>
<path d="M3570 2530 c-10 -19 -8 -20 35 -20 46 0 54 7 33 28 -19 19 -56 14
-68 -8z"/>
<path d="M1176 2174 c-18 -18 -20 -47 -6 -75 23 -42 70 -5 70 54 0 32 -3 37
-24 37 -14 0 -32 -7 -40 -16z"/>
<path d="M692 2178 c-16 -16 -16 -70 0 -86 7 -7 21 -12 33 -12 30 0 45 19 45
55 0 36 -15 55 -45 55 -12 0 -26 -5 -33 -12z"/>
<path d="M852 2178 c-16 -16 -16 -70 0 -86 7 -7 21 -12 33 -12 30 0 45 19 45
55 0 36 -15 55 -45 55 -12 0 -26 -5 -33 -12z"/>
<path d="M1654 2115 c-8 -19 3 -35 25 -35 20 0 41 19 41 37 0 18 -59 17 -66
-2z"/>
<path d="M1972 2178 c-7 -7 -12 -26 -12 -43 0 -36 15 -55 45 -55 30 0 45 19
45 55 0 36 -15 55 -45 55 -12 0 -26 -5 -33 -12z"/>
<path d="M2614 2115 c-8 -19 3 -35 25 -35 20 0 41 19 41 37 0 18 -59 17 -66
-2z"/>
<path d="M3410 2170 c-10 -19 -8 -20 35 -20 46 0 54 7 33 28 -19 19 -56 14
-68 -8z"/>
<path d="M1496 1814 c-18 -18 -20 -47 -6 -75 23 -42 70 -5 70 54 0 32 -3 37
-24 37 -14 0 -32 -7 -40 -16z"/>
<path d="M4536 1814 c-18 -18 -20 -47 -6 -75 23 -42 70 -5 70 54 0 32 -3 37
-24 37 -14 0 -32 -7 -40 -16z"/>
<path d="M6616 1814 c-18 -18 -20 -47 -6 -75 23 -42 70 -5 70 54 0 32 -3 37
-24 37 -14 0 -32 -7 -40 -16z"/>
<path d="M852 1818 c-16 -16 -16 -70 0 -86 7 -7 21 -12 33 -12 30 0 45 19 45
55 0 36 -15 55 -45 55 -12 0 -26 -5 -33 -12z"/>
<path d="M1332 1818 c-7 -7 -12 -26 -12 -43 0 -36 15 -55 45 -55 30 0 45 19
45 55 0 36 -15 55 -45 55 -12 0 -26 -5 -33 -12z"/>
<path d="M1650 1810 c-10 -19 -8 -20 35 -20 46 0 54 7 33 28 -19 19 -56 14
-68 -8z"/>
<path d="M2454 1755 c-8 -19 3 -35 25 -35 20 0 41 19 41 37 0 18 -59 17 -66
-2z"/>
<path d="M3250 1810 c-10 -19 -8 -20 35 -20 46 0 54 7 33 28 -19 19 -56 14
-68 -8z"/>
<path d="M5014 1815 c-9 -23 3 -45 24 -45 29 0 48 26 32 45 -7 8 -21 15 -32
15 -10 0 -21 -7 -24 -15z"/>
<path d="M5005 1690 c-12 -19 10 -32 46 -28 48 4 46 32 -3 36 -20 2 -39 -2
-43 -8z"/>
<path d="M5650 1810 c-10 -19 -8 -20 35 -20 46 0 54 7 33 28 -19 19 -56 14
-68 -8z"/>
<path d="M6132 1818 c-7 -7 -12 -26 -12 -43 0 -36 15 -55 45 -55 30 0 45 19
45 55 0 36 -15 55 -45 55 -12 0 -26 -5 -33 -12z"/>
<path d="M6292 1818 c-7 -7 -12 -26 -12 -43 0 -36 15 -55 45 -55 30 0 45 19
45 55 0 36 -15 55 -45 55 -12 0 -26 -5 -33 -12z"/>
<path d="M7094 1755 c-8 -19 3 -35 25 -35 20 0 41 19 41 37 0 18 -59 17 -66
-2z"/>
<path d="M7412 1818 c-7 -7 -12 -26 -12 -43 0 -36 15 -55 45 -55 30 0 45 19
45 55 0 36 -15 55 -45 55 -12 0 -26 -5 -33 -12z"/>
<path d="M4388 1459 c-13 -7 -18 -23 -18 -54 0 -43 1 -45 30 -45 32 0 50 22
50 62 0 41 -28 58 -62 37z"/>
<path d="M4856 1454 c-18 -18 -20 -47 -6 -75 23 -42 70 -5 70 54 0 32 -3 37
-24 37 -14 0 -32 -7 -40 -16z"/>
<path d="M62 1450 l-31 -50 34 0 35 0 0 50 c0 28 -2 50 -4 50 -1 0 -17 -22
-34 -50z"/>
<path d="M1665 1461 c-9 -29 -15 -55 -12 -57 3 -3 18 -4 34 -2 l29 3 -17 54
-16 55 -18 -53z"/>
<path d="M3410 1480 c0 -29 2 -31 33 -28 27 2 32 7 32 28 0 21 -5 26 -32 28
-31 3 -33 1 -33 -28z"/>
<path d="M3410 1395 c0 -32 2 -35 30 -35 19 0 33 7 40 21 15 27 -3 49 -41 49
-26 0 -29 -3 -29 -35z"/>
<path d="M854 1395 c-8 -19 3 -35 25 -35 20 0 41 19 41 37 0 18 -59 17 -66 -2z"/>
<path d="M1174 1455 c-9 -23 3 -45 24 -45 11 0 25 7 32 15 16 19 -3 45 -32 45
-10 0 -21 -7 -24 -15z"/>
<path d="M1165 1330 c-12 -19 10 -32 46 -28 48 4 46 32 -3 36 -20 2 -39 -2
-43 -8z"/>
<path d="M1330 1450 c-10 -19 -8 -20 35 -20 46 0 54 7 33 28 -19 19 -56 14
-68 -8z"/>
<path d="M1974 1455 c-9 -23 3 -45 24 -45 29 0 48 26 32 45 -7 8 -21 15 -32
15 -10 0 -21 -7 -24 -15z"/>
<path d="M1965 1330 c-12 -19 10 -32 46 -28 48 4 46 32 -3 36 -20 2 -39 -2
-43 -8z"/>
<path d="M2132 1458 c-7 -7 -12 -26 -12 -43 0 -36 15 -55 45 -55 30 0 45 19
45 55 0 36 -15 55 -45 55 -12 0 -26 -5 -33 -12z"/>
<path d="M5010 1450 c-10 -19 -8 -20 35 -20 46 0 54 7 33 28 -19 19 -56 14
-68 -8z"/>
<path d="M5334 1395 c-8 -19 3 -35 25 -35 20 0 41 19 41 37 0 18 -59 17 -66
-2z"/>
<path d="M2148 1099 c-13 -7 -18 -23 -18 -54 0 -43 1 -45 30 -45 32 0 50 22
50 62 0 41 -28 58 -62 37z"/>
<path d="M3576 1094 c-18 -18 -20 -47 -6 -75 23 -42 70 -5 70 54 0 32 -3 37
-24 37 -14 0 -32 -7 -40 -16z"/>
<path d="M4360 1075 l0 -75 28 0 c39 0 62 28 62 77 0 46 -23 73 -63 73 -27 0
-27 0 -27 -75z"/>
<path d="M4865 1101 c-9 -29 -15 -55 -12 -57 3 -3 18 -4 34 -2 l29 3 -17 54
-16 55 -18 -53z"/>
<path d="M5982 1090 l-31 -50 34 0 35 0 0 50 c0 28 -2 50 -4 50 -1 0 -17 -22
-34 -50z"/>
<path d="M854 1035 c-8 -19 3 -35 25 -35 20 0 41 19 41 37 0 18 -59 17 -66 -2z"/>
<path d="M1174 1095 c-9 -23 3 -45 24 -45 11 0 25 7 32 15 16 19 -3 45 -32 45
-10 0 -21 -7 -24 -15z"/>
<path d="M1165 970 c-12 -19 10 -32 46 -28 48 4 46 32 -3 36 -20 2 -39 -2 -43
-8z"/>
<path d="M1330 1090 c-10 -19 -8 -20 35 -20 46 0 54 7 33 28 -19 19 -56 14
-68 -8z"/>
<path d="M2290 1090 c-10 -19 -8 -20 35 -20 46 0 54 7 33 28 -19 19 -56 14
-68 -8z"/>
<path d="M2772 1098 c-7 -7 -12 -26 -12 -43 0 -36 15 -55 45 -55 30 0 45 19
45 55 0 36 -15 55 -45 55 -12 0 -26 -5 -33 -12z"/>
<path d="M3412 1098 c-7 -7 -12 -26 -12 -43 0 -36 15 -55 45 -55 30 0 45 19
45 55 0 36 -15 55 -45 55 -12 0 -26 -5 -33 -12z"/>
<path d="M3730 1090 c-10 -19 -8 -20 35 -20 46 0 54 7 33 28 -19 19 -56 14
-68 -8z"/>
<path d="M53 712 c-20 -12 -3 -62 23 -68 42 -11 72 34 42 64 -13 13 -47 16
-65 4z"/>
</g>
</svg>
