<?xml version="1.0" standalone="no"?>
<!DOCTYPE svg PUBLIC "-//W3C//DTD SVG 20010904//EN"
 "http://www.w3.org/TR/2001/REC-SVG-20010904/DTD/svg10.dtd">
<svg version="1.0" xmlns="http://www.w3.org/2000/svg"
 width="586.000000pt" height="268.000000pt" viewBox="0 0 586.000000 268.000000"
 preserveAspectRatio="xMidYMid meet">

<g transform="translate(0.000000,268.000000) scale(0.100000,-0.100000)"
fill="#000000" stroke="none">
<path d="M0 1350 l0 -1330 210 0 210 0 0 79 c0 87 1 87 66 75 51 -9 31 -104
-21 -104 -20 0 -25 -5 -25 -25 l0 -25 2710 0 2710 0 0 1330 0 1330 -2930 0
-2929 0 -1 -1330z m3093 1282 c-6 -4 -13 -17 -17 -29 -5 -16 -2 -23 13 -28 10
-3 22 -13 25 -22 7 -18 -20 -53 -41 -53 -7 0 -13 -7 -13 -16 0 -8 -5 -12 -11
-9 -6 4 -8 9 -5 12 3 3 -5 14 -17 24 -22 18 -22 18 -1 13 31 -8 42 36 14 55
-28 19 -25 49 5 63 14 6 25 15 25 20 0 5 7 2 17 -7 10 -11 12 -19 6 -23z
m-2913 -2 c0 -27 3 -30 24 -24 19 4 28 0 41 -20 14 -22 15 -29 3 -53 -11 -23
-20 -28 -48 -28 l-35 0 -3 78 c-2 48 1 77 8 77 5 0 10 -14 10 -30z m708 21
c20 -12 31 -77 21 -116 -9 -32 -12 -34 -47 -32 -30 2 -38 6 -40 25 -5 30 23
72 47 72 16 0 18 -6 14 -40 -4 -26 -2 -40 6 -40 17 0 14 105 -4 120 -37 31
-81 -28 -79 -107 1 -48 17 -72 48 -74 16 -1 17 -2 4 -6 -49 -13 -78 55 -57
132 18 64 51 89 87 66z m106 -12 c-3 -5 -10 -7 -15 -3 -5 3 -7 10 -3 15 3 5
10 7 15 3 5 -3 7 -10 3 -15z m2375 -61 c0 -46 -3 -77 -6 -71 -3 10 -10 10 -24
2 -27 -14 -56 -3 -61 25 -7 38 9 66 42 72 23 5 30 12 30 30 0 13 5 24 10 24 6
0 10 -34 9 -82z m321 37 c0 -50 8 -55 35 -25 10 11 23 20 28 20 6 0 0 -11 -13
-25 l-24 -25 29 -30 c17 -18 23 -30 15 -30 -7 0 -26 15 -41 33 l-28 32 -1 -32
c0 -18 -4 -33 -10 -33 -6 0 -10 33 -10 80 0 47 4 80 10 80 6 0 10 -20 10 -45z
m1080 30 c0 -8 -4 -15 -9 -15 -13 0 -22 16 -14 24 11 11 23 6 23 -9z m-4154
-35 c13 0 24 -4 24 -10 0 -5 -11 -10 -25 -10 -22 0 -25 -4 -25 -35 0 -31 3
-35 25 -35 14 0 25 -4 25 -10 0 -14 -43 -13 -58 2 -7 7 -12 27 -12 45 0 23 -5
33 -15 33 -8 0 -15 5 -15 10 0 6 6 10 14 10 7 0 17 10 21 23 l8 22 4 -22 c3
-16 11 -23 29 -23z m774 -25 c0 -51 3 -65 15 -65 8 0 15 -4 15 -10 0 -5 -20
-10 -45 -10 -25 0 -45 5 -45 10 0 6 9 10 20 10 18 0 20 7 20 54 0 49 -2 54
-20 49 -27 -7 -25 5 3 17 36 14 37 13 37 -55z m160 56 c0 -20 -60 -141 -70
-141 -6 0 3 27 20 60 16 33 30 62 30 65 0 3 -16 5 -35 5 -19 0 -35 5 -35 10 0
6 20 10 45 10 25 0 45 -4 45 -9z m107 1 c11 -7 16 -26 14 -49 0 -6 -13 -25
-27 -42 l-26 -31 31 0 c17 0 31 -4 31 -10 0 -5 -20 -10 -45 -10 -25 0 -45 3
-45 6 0 3 16 24 35 47 43 50 42 73 -3 70 -27 -1 -31 1 -21 13 12 15 37 18 56
6z m262 -1 c8 -6 12 -19 9 -35 -3 -15 -1 -29 3 -32 30 -18 -10 -74 -53 -74
-39 0 -35 18 5 22 24 2 32 8 32 23 0 13 -8 21 -22 23 -13 2 -23 7 -23 12 0 5
10 10 23 12 36 5 27 33 -12 36 -25 3 -31 6 -20 13 18 11 40 11 58 0z m121 -56
c0 -51 3 -65 15 -65 8 0 15 -4 15 -10 0 -5 -20 -10 -45 -10 -25 0 -45 5 -45
10 0 6 9 10 20 10 18 0 20 7 20 54 0 49 -2 54 -20 49 -27 -7 -25 5 3 17 36 14
37 13 37 -55z m290 54 c0 -21 -59 -139 -70 -139 -6 0 3 27 20 60 16 33 30 62
30 65 0 3 -16 5 -35 5 -19 0 -35 5 -35 10 0 6 20 10 45 10 26 0 45 -5 45 -11z
m244 5 c19 -7 21 -35 5 -51 -9 -9 -8 -16 4 -27 21 -21 10 -55 -19 -62 -47 -12
-78 21 -55 57 8 15 8 24 -1 40 -11 17 -10 22 6 35 22 15 36 17 60 8z m136 -4
c0 -5 -13 -10 -30 -10 -43 0 -41 -33 3 -45 59 -18 36 -85 -30 -85 -35 0 -27
18 10 22 24 2 32 8 32 23 0 14 -8 21 -30 25 -26 4 -30 10 -33 43 l-3 37 40 0
c23 0 41 -4 41 -10z m-2660 -76 c0 -41 2 -45 23 -42 18 2 23 10 25 46 4 60 22
52 22 -10 0 -52 0 -53 -32 -55 -17 -1 -38 2 -45 8 -15 13 -18 99 -3 99 6 0 10
-21 10 -46z m260 0 c0 -41 2 -45 23 -42 18 2 23 10 25 46 4 60 22 52 22 -10
l0 -53 -33 0 c-17 0 -38 4 -44 8 -15 10 -18 97 -3 97 6 0 10 -21 10 -46z m188
33 c14 -10 17 -97 2 -97 -5 0 -10 21 -10 46 0 41 -2 45 -22 42 -19 -2 -24 -10
-26 -45 -4 -61 -22 -53 -22 10 l0 52 33 0 c17 0 38 -4 45 -8z m202 -33 c0 -41
2 -45 23 -42 18 2 23 10 25 46 4 60 22 52 22 -10 l0 -53 -33 0 c-17 0 -38 4
-44 8 -15 10 -18 97 -3 97 6 0 10 -21 10 -46z m295 26 c3 -11 3 -29 0 -41 -5
-15 -2 -22 14 -26 37 -9 23 -23 -24 -23 -25 0 -45 5 -45 10 0 6 9 10 20 10 16
0 20 7 20 35 0 24 -5 35 -15 35 -8 0 -15 5 -15 10 0 19 39 10 45 -10z m106 11
c11 5 29 7 40 4 17 -6 20 -14 17 -48 -3 -38 -6 -43 -35 -52 -25 -7 -33 -15
-33 -32 0 -13 -4 -23 -10 -23 -6 0 -10 34 -9 83 0 45 3 76 6 70 3 -10 10 -10
24 -2z m1713 -12 c-3 -5 -10 -7 -15 -3 -5 3 -7 10 -3 15 3 5 10 7 15 3 5 -3 7
-10 3 -15z m678 4 c10 -9 18 -23 18 -32 0 -28 -30 -61 -55 -61 -24 0 -55 33
-55 57 0 19 37 53 57 53 9 0 25 -7 35 -17z m133 7 c3 -6 -4 -10 -17 -10 -34 0
-50 -14 -46 -41 2 -19 10 -25 36 -27 36 -4 34 -22 -3 -22 -49 0 -72 55 -38 92
17 19 58 24 68 8z m253 -2 c7 -7 12 -20 12 -30 0 -14 -8 -18 -41 -18 -36 0
-40 -2 -29 -15 7 -8 25 -15 41 -15 16 0 29 -4 29 -10 0 -13 -46 -13 -71 0 -25
14 -26 75 -1 89 23 14 45 14 60 -1z m72 2 c0 -6 10 -5 25 2 21 9 29 9 42 -5 9
-9 13 -20 9 -24 -5 -5 -11 -2 -13 5 -6 15 -35 16 -51 0 -7 -7 -12 -27 -12 -45
0 -18 -3 -33 -8 -33 -4 0 -8 25 -8 55 -1 30 3 55 8 55 4 0 8 -4 8 -10z m268
-40 l15 -44 13 29 c7 17 15 38 18 48 3 9 10 17 16 17 5 0 1 -23 -10 -50 -11
-28 -20 -53 -20 -55 0 -3 -6 -5 -12 -5 -7 0 -23 25 -35 56 -12 31 -17 54 -10
51 6 -2 17 -23 25 -47z m180 38 c7 -7 12 -20 12 -30 0 -14 -8 -18 -41 -18 -36
0 -40 -2 -29 -15 7 -8 25 -15 41 -15 16 0 29 -4 29 -10 0 -13 -46 -13 -71 0
-25 14 -26 75 -1 89 23 14 45 14 60 -1z m72 0 c0 -9 3 -9 12 0 7 7 20 12 29
12 20 0 45 -28 34 -38 -4 -4 -10 -1 -12 6 -6 15 -35 16 -51 0 -7 -7 -12 -28
-12 -47 0 -19 -3 -32 -6 -28 -10 9 -11 107 -2 107 4 0 8 -5 8 -12z m185 2 c4
-6 -7 -10 -24 -10 -40 0 -39 -13 2 -31 17 -8 32 -20 32 -28 0 -21 -29 -35 -58
-27 -40 10 -33 23 9 18 28 -3 35 -1 32 9 -3 8 -14 15 -26 17 -33 5 -46 27 -27
46 18 18 51 21 60 6z m115 -35 c0 -33 4 -45 15 -45 8 0 15 -4 15 -10 0 -5 -20
-10 -45 -10 -25 0 -45 5 -45 10 0 6 9 10 20 10 16 0 20 7 20 35 0 24 -5 35
-15 35 -8 0 -15 5 -15 10 0 6 11 10 25 10 23 0 25 -4 25 -45z m152 28 c10 -9
18 -23 18 -32 0 -28 -30 -61 -55 -61 -24 0 -55 33 -55 57 0 19 37 53 57 53 9
0 25 -7 35 -17z m136 -40 c2 -32 -1 -53 -7 -53 -6 0 -11 20 -11 45 0 45 -5 50
-34 39 -11 -4 -16 -19 -16 -45 0 -21 -4 -39 -10 -39 -5 0 -10 24 -10 53 l0 54
43 -1 42 -1 3 -52z m-3778 7 c0 -5 -16 -10 -35 -10 -19 0 -35 5 -35 10 0 6 16
10 35 10 19 0 35 -4 35 -10z m520 0 c0 -5 -16 -10 -35 -10 -19 0 -35 5 -35 10
0 6 16 10 35 10 19 0 35 -4 35 -10z m390 0 c0 -5 -16 -10 -35 -10 -19 0 -35 5
-35 10 0 6 16 10 35 10 19 0 35 -4 35 -10z m260 0 c0 -5 -16 -10 -35 -10 -19
0 -35 5 -35 10 0 6 16 10 35 10 19 0 35 -4 35 -10z m368 -49 c3 -8 -1 -12 -9
-9 -7 2 -15 10 -17 17 -3 8 1 12 9 9 7 -2 15 -10 17 -17z m-2598 -191 c0 -56
3 -70 15 -70 8 0 15 -4 15 -10 0 -5 -20 -10 -45 -10 -25 0 -45 5 -45 10 0 6 9
10 20 10 18 0 20 7 20 60 0 54 -2 60 -21 60 -11 0 -17 5 -14 10 3 6 17 10 31
10 23 0 24 -2 24 -70z m130 55 c0 -8 -4 -15 -9 -15 -13 0 -22 16 -14 24 11 11
23 6 23 -9z m1130 -65 c0 -47 -4 -80 -10 -80 -6 0 -10 33 -10 80 0 47 4 80 10
80 6 0 10 -33 10 -80z m950 65 c0 -8 -4 -15 -9 -15 -13 0 -22 16 -14 24 11 11
23 6 23 -9z m1560 0 c0 -8 -4 -15 -9 -15 -13 0 -22 16 -14 24 11 11 23 6 23
-9z m-3875 -5 c3 -6 -5 -10 -19 -10 -74 0 -75 -103 -1 -112 24 -3 27 -6 12
-12 -41 -19 -87 20 -87 75 0 42 76 89 95 59z m605 -10 c0 -15 7 -20 25 -20 14
0 25 -4 25 -10 0 -5 -11 -10 -25 -10 -22 0 -25 -4 -25 -35 0 -31 3 -35 25 -35
14 0 25 -4 25 -10 0 -14 -43 -13 -58 2 -7 7 -12 27 -12 45 0 23 -5 33 -15 33
-8 0 -15 5 -15 10 0 6 7 10 15 10 8 0 15 9 15 20 0 11 5 20 10 20 6 0 10 -9
10 -20z m428 4 c29 -20 31 -85 2 -114 -19 -19 -79 -28 -81 -12 0 4 -3 27 -5
51 -8 67 1 91 34 91 15 0 38 -7 50 -16z m922 6 c0 -5 -16 -10 -35 -10 -28 0
-35 -4 -35 -20 0 -16 7 -20 30 -20 17 0 30 -4 30 -10 0 -5 -13 -10 -30 -10
-25 0 -30 -4 -30 -25 0 -22 4 -25 35 -25 19 0 35 -4 35 -10 0 -5 -18 -10 -39
-10 -45 0 -48 8 -43 98 l4 52 39 0 c21 0 39 -4 39 -10z m1165 0 c3 -6 -5 -10
-19 -10 -74 0 -75 -103 -1 -112 24 -3 27 -6 12 -12 -41 -19 -87 20 -87 75 0
42 76 89 95 59z m865 -10 c0 -15 7 -20 25 -20 14 0 25 -4 25 -10 0 -5 -11 -10
-25 -10 -22 0 -25 -4 -25 -35 0 -31 3 -35 25 -35 14 0 25 -4 25 -10 0 -11 -30
-13 -54 -4 -11 4 -16 19 -16 45 0 28 -4 39 -15 39 -8 0 -15 5 -15 10 0 6 7 10
15 10 8 0 15 9 15 20 0 11 5 20 10 20 6 0 10 -9 10 -20z m-3750 -65 c0 -33 4
-45 15 -45 8 0 15 -4 15 -10 0 -5 -20 -10 -45 -10 -25 0 -45 5 -45 10 0 6 9
10 20 10 16 0 20 7 20 35 0 24 -5 35 -15 35 -8 0 -15 5 -15 10 0 6 11 10 25
10 23 0 25 -4 25 -45z m148 33 c7 -7 12 -20 12 -30 0 -14 -8 -18 -41 -18 -36
0 -40 -2 -29 -15 7 -8 25 -15 41 -15 16 0 29 -4 29 -10 0 -16 -66 -12 -80 5
-40 48 24 127 68 83z m140 -45 c2 -32 -1 -53 -7 -53 -6 0 -11 20 -11 45 0 45
-5 50 -34 39 -11 -4 -16 -19 -16 -45 0 -21 -4 -39 -10 -39 -5 0 -10 24 -10 53
l0 54 43 -1 42 -1 3 -52z m223 44 c-1 -12 -15 -9 -19 4 -3 6 1 10 8 8 6 -3 11
-8 11 -12z m421 -4 c10 -9 18 -23 18 -32 0 -28 -30 -61 -55 -61 -24 0 -55 33
-55 57 0 19 37 53 57 53 9 0 25 -7 35 -17z m133 7 c3 -6 -4 -10 -17 -10 -34 0
-50 -14 -46 -41 2 -19 10 -25 36 -27 36 -4 34 -22 -3 -22 -49 0 -72 55 -38 92
17 19 58 24 68 8z m115 -15 l-24 -25 29 -30 c20 -21 24 -30 14 -30 -8 0 -26
14 -38 31 l-23 31 23 24 c12 13 27 24 32 24 6 0 0 -11 -13 -25z m138 13 c7 -7
12 -20 12 -30 0 -14 -8 -18 -41 -18 -36 0 -40 -2 -29 -15 7 -8 25 -15 41 -15
16 0 29 -4 29 -10 0 -14 -64 -12 -78 2 -18 18 -15 75 6 87 23 14 45 14 60 -1z
m98 4 c20 9 28 8 41 -5 9 -9 13 -20 9 -24 -5 -5 -11 -2 -13 5 -6 15 -35 16
-51 0 -7 -7 -12 -28 -12 -47 0 -50 -11 -31 -14 23 -2 43 4 70 12 47 2 -6 12
-6 28 1z m432 -49 c2 -32 -1 -53 -7 -53 -6 0 -11 20 -11 45 0 45 -5 50 -34 39
-11 -4 -16 -19 -16 -45 0 -21 -4 -39 -10 -39 -5 0 -10 24 -10 53 l0 54 43 -1
42 -1 3 -52z m136 35 c-11 -36 -24 -48 -56 -48 -17 0 -27 -4 -23 -10 3 -5 17
-10 30 -10 54 0 77 -38 36 -60 -43 -23 -104 0 -85 32 5 7 8 31 7 53 -2 51 10
65 59 65 36 0 39 -2 32 -22z m96 -23 c0 -33 4 -45 15 -45 8 0 15 -4 15 -10 0
-5 -20 -10 -45 -10 -25 0 -45 5 -45 10 0 6 9 10 20 10 16 0 20 7 20 35 0 29
-4 35 -21 35 -11 0 -17 5 -14 10 3 6 17 10 31 10 22 0 24 -4 24 -45z m158 -12
c2 -32 -1 -53 -7 -53 -6 0 -11 20 -11 45 0 30 -4 45 -13 45 -22 0 -37 -23 -37
-57 0 -18 -4 -33 -10 -33 -5 0 -10 24 -10 53 l0 54 43 -1 42 -1 3 -52z m120
45 c7 -7 12 -20 12 -30 0 -14 -8 -18 -41 -18 -36 0 -40 -2 -29 -15 7 -8 25
-15 41 -15 16 0 29 -4 29 -10 0 -16 -66 -12 -80 5 -40 48 24 127 68 83z m654
-5 c10 -9 18 -23 18 -32 0 -28 -30 -61 -55 -61 -24 0 -55 33 -55 57 0 19 37
53 57 53 9 0 25 -7 35 -17z m98 5 c0 -7 5 -6 15 2 8 6 19 9 25 5 13 -8 13
-105 0 -105 -5 0 -10 21 -10 46 0 39 -2 45 -14 34 -8 -6 -17 -28 -19 -48 -3
-32 -4 -31 -5 11 -2 61 -26 60 -30 -1 -5 -61 -22 -51 -22 11 0 53 1 54 30 55
17 0 30 -4 30 -10z m130 0 c0 -7 5 -6 15 2 8 6 19 9 25 5 13 -8 13 -105 0
-105 -5 0 -10 21 -10 46 0 41 -2 45 -16 33 -10 -8 -14 -23 -12 -41 3 -16 1
-31 -4 -34 -4 -3 -8 16 -8 41 0 60 -24 57 -28 -3 -5 -61 -22 -51 -22 11 0 53
1 54 30 55 17 0 30 -4 30 -10z m102 -30 c2 -35 7 -43 23 -43 16 0 21 8 23 43
4 61 22 52 22 -11 l0 -54 -32 0 c-46 0 -58 13 -58 63 0 56 18 57 22 2z m196
-15 c2 -32 -1 -53 -7 -53 -6 0 -11 20 -11 45 0 30 -4 45 -13 45 -22 0 -37 -23
-37 -57 0 -18 -4 -33 -10 -33 -5 0 -10 24 -10 53 l0 54 43 -1 42 -1 3 -52z
m102 12 c0 -33 4 -45 15 -45 8 0 15 -4 15 -10 0 -5 -20 -10 -45 -10 -25 0 -45
5 -45 10 0 6 9 10 20 10 16 0 20 7 20 35 0 29 -4 35 -21 35 -11 0 -17 5 -14
10 3 6 17 10 31 10 22 0 24 -4 24 -45z m229 -6 l14 -44 20 48 c11 26 23 47 28
47 5 0 5 -10 0 -22 -42 -105 -63 -138 -88 -138 -20 0 -15 17 7 23 25 7 25 33
0 92 -12 29 -15 45 -8 43 6 -2 18 -24 27 -49z m-1249 1 c0 -5 -16 -10 -35 -10
-19 0 -35 5 -35 10 0 6 16 10 35 10 19 0 35 -4 35 -10z m-2109 -43 c-1 -12
-15 -9 -19 4 -3 6 1 10 8 8 6 -3 11 -8 11 -12z m-121 -142 c0 -8 -4 -15 -9
-15 -13 0 -22 16 -14 24 11 11 23 6 23 -9z m-555 -63 c9 -29 19 -51 21 -49 2
2 12 28 22 57 10 30 24 56 30 58 6 2 0 -29 -14 -72 -15 -43 -31 -76 -39 -76
-13 0 -55 107 -55 139 0 26 17 -1 35 -57z m2519 52 c23 -22 20 -39 -15 -79
l-31 -35 31 0 c17 0 31 -4 31 -10 0 -5 -20 -10 -45 -10 -25 0 -45 3 -45 6 0 4
16 24 36 46 43 48 42 74 -4 71 -27 -1 -31 1 -21 13 15 19 44 18 63 -2z m140
-6 c34 -48 9 -128 -39 -128 -35 0 -59 41 -52 88 10 60 61 83 91 40z m236 -43
c0 -51 3 -65 15 -65 8 0 15 -4 15 -10 0 -5 -20 -10 -45 -10 -25 0 -45 5 -45
10 0 6 9 10 20 10 18 0 20 7 20 54 0 51 -1 54 -22 49 -22 -4 -23 -4 -4 11 37
30 46 21 46 -49z m154 43 c33 -47 9 -128 -38 -128 -33 0 -51 26 -51 75 0 23 6
49 14 58 19 24 57 21 75 -5z m254 5 c14 -27 6 -52 -24 -84 l-28 -29 32 0 c18
0 32 -4 32 -10 0 -5 -20 -10 -45 -10 -25 0 -45 3 -45 6 0 4 16 24 36 46 43 48
42 74 -4 71 -27 -1 -31 1 -21 13 16 20 56 17 67 -3z m112 -48 c0 -51 3 -65 15
-65 8 0 15 -4 15 -10 0 -5 -20 -10 -45 -10 -25 0 -45 5 -45 10 0 6 9 10 20 10
18 0 20 7 20 54 0 51 -1 54 -22 49 -22 -4 -23 -4 -4 11 37 30 46 21 46 -49z
m-3232 13 c7 -7 12 -20 12 -30 0 -14 -8 -18 -41 -18 -36 0 -40 -2 -29 -15 7
-8 25 -15 41 -15 16 0 29 -4 29 -10 0 -14 -64 -12 -78 2 -18 18 -15 75 6 87
23 14 45 14 60 -1z m98 4 c20 9 28 8 41 -5 9 -9 13 -20 9 -24 -4 -4 -11 -1
-15 6 -6 9 -18 11 -35 7 -23 -6 -26 -12 -26 -46 0 -22 -4 -40 -8 -40 -5 0 -7
24 -6 53 3 62 4 66 10 50 4 -9 11 -9 30 -1z m161 -8 c2 -7 -8 -9 -27 -6 -41 6
-38 -14 5 -28 37 -12 44 -30 21 -49 -17 -14 -68 -11 -73 5 -2 6 10 8 32 6 40
-5 49 14 10 24 -13 3 -30 13 -37 21 -10 12 -9 18 7 29 22 16 56 15 62 -2z
m113 -29 c0 -33 4 -45 15 -45 8 0 15 -4 15 -10 0 -5 -20 -10 -45 -10 -25 0
-45 5 -45 10 0 6 9 10 20 10 16 0 20 7 20 35 0 24 -5 35 -15 35 -8 0 -15 5
-15 10 0 6 11 10 25 10 23 0 25 -4 25 -45z m152 28 c22 -20 23 -42 2 -71 -18
-26 -50 -28 -76 -5 -24 21 -23 48 2 73 24 24 47 25 72 3z m136 -40 c2 -32 -1
-53 -7 -53 -6 0 -11 20 -11 45 0 45 -5 50 -34 39 -11 -4 -16 -19 -16 -45 0
-21 -4 -39 -10 -39 -5 0 -10 24 -10 53 l0 54 43 -1 42 -1 3 -52z m94 42 c0 -5
-5 -11 -11 -13 -6 -2 -11 4 -11 13 0 9 5 15 11 13 6 -2 11 -8 11 -13z m0 -80
c0 -5 -5 -11 -11 -13 -6 -2 -11 4 -11 13 0 9 5 15 11 13 6 -2 11 -8 11 -13z
m1828 0 c0 -8 -7 -15 -15 -15 -8 0 -15 7 -15 15 0 8 7 15 15 15 8 0 15 -7 15
-15z m390 0 c0 -8 -7 -15 -15 -15 -8 0 -15 7 -15 15 0 8 7 15 15 15 8 0 15 -7
15 -15z m-2080 -140 c0 -8 -4 -15 -9 -15 -13 0 -22 16 -14 24 11 11 23 6 23
-9z m-1022 -63 c25 -78 26 -82 12 -82 -5 0 -10 7 -10 15 0 22 -59 20 -76 -2
-11 -15 -13 -16 -14 -2 0 29 42 139 54 139 7 0 22 -31 34 -68z m136 52 c9 -8
16 -22 16 -30 0 -21 -37 -54 -60 -54 -15 0 -20 -7 -20 -25 0 -14 -4 -25 -10
-25 -6 0 -10 32 -10 75 l0 75 34 0 c19 0 42 -7 50 -16z m136 6 c0 -5 -9 -10
-20 -10 -18 0 -20 -7 -20 -55 0 -48 2 -55 20 -55 11 0 20 -4 20 -10 0 -5 -20
-10 -45 -10 -25 0 -45 5 -45 10 0 6 9 10 20 10 18 0 20 7 20 55 0 48 -2 55
-20 55 -11 0 -20 5 -20 10 0 6 20 10 45 10 25 0 45 -4 45 -10z m2180 -55 c0
-51 3 -65 15 -65 8 0 15 -4 15 -10 0 -5 -20 -10 -45 -10 -25 0 -45 5 -45 10 0
6 9 10 20 10 18 0 20 7 20 55 0 53 -1 55 -20 45 -14 -8 -20 -8 -20 0 0 9 33
28 53 29 4 1 7 -28 7 -64z m271 33 c1 -18 1 -41 0 -50 -1 -10 4 -18 13 -18 9
0 16 -4 16 -10 0 -5 -7 -10 -15 -10 -8 0 -16 -8 -16 -17 -1 -17 -2 -17 -6 0
-3 12 -15 17 -39 17 -42 0 -43 12 -4 73 35 55 50 59 51 15z m119 -33 c0 -51 3
-65 15 -65 8 0 15 -4 15 -10 0 -5 -20 -10 -45 -10 -25 0 -45 5 -45 10 0 6 9
10 20 10 18 0 20 7 20 55 0 53 -1 55 -20 45 -14 -8 -20 -8 -20 0 0 9 33 28 53
29 4 1 7 -28 7 -64z m-2371 -26 l14 -44 20 48 c11 26 23 47 28 47 5 0 0 -23
-11 -50 -11 -28 -20 -53 -20 -55 0 -3 -6 -5 -12 -5 -7 0 -23 25 -35 56 -12 31
-17 54 -10 51 6 -2 17 -23 26 -48z m179 39 c7 -7 12 -20 12 -30 0 -14 -8 -18
-41 -18 -36 0 -40 -2 -29 -15 7 -8 25 -15 41 -15 16 0 29 -4 29 -10 0 -15 -53
-12 -74 3 -11 8 -18 26 -18 42 0 44 51 72 80 43z m143 -4 c6 -8 8 -18 4 -22
-4 -4 -10 -1 -12 6 -6 15 -35 16 -51 0 -7 -7 -12 -28 -12 -47 0 -51 -12 -30
-14 26 l-2 49 37 1 c22 1 42 -4 50 -13z m116 0 c2 -7 -8 -9 -27 -6 -42 6 -38
-14 6 -28 56 -19 29 -71 -29 -56 -39 9 -33 23 8 18 40 -5 49 14 10 24 -36 9
-51 30 -35 50 14 16 61 16 67 -2z m113 -29 c0 -33 4 -45 15 -45 8 0 15 -4 15
-10 0 -5 -20 -10 -45 -10 -25 0 -45 5 -45 10 0 6 9 10 20 10 16 0 20 7 20 35
0 29 -4 35 -21 35 -11 0 -17 5 -14 10 3 6 17 10 31 10 22 0 24 -4 24 -45z
m152 28 c22 -20 23 -42 2 -71 -18 -26 -50 -28 -76 -5 -22 20 -23 42 -2 71 18
26 50 28 76 5z m131 8 c11 -2 8 -101 -3 -101 -5 0 -10 21 -10 46 0 41 -2 45
-22 42 -19 -2 -24 -10 -26 -45 -5 -62 -22 -53 -22 11 l0 53 38 -2 c20 -1 40
-3 45 -4z m99 -6 c0 -5 -5 -11 -11 -13 -6 -2 -11 4 -11 13 0 9 5 15 11 13 6
-2 11 -8 11 -13z m0 -80 c0 -5 -5 -11 -11 -13 -6 -2 -11 4 -11 13 0 9 5 15 11
13 6 -2 11 -8 11 -13z m1178 0 c0 -8 -7 -15 -15 -15 -8 0 -15 7 -15 15 0 8 7
15 15 15 8 0 15 -7 15 -15z m-1692 -144 c3 -8 -1 -12 -9 -9 -7 2 -15 10 -17
17 -3 8 1 12 9 9 7 -2 15 -10 17 -17z m-883 -1 c3 -6 -5 -10 -19 -10 -32 0
-56 -25 -56 -59 0 -33 16 -51 47 -51 18 0 23 6 23 25 0 16 -6 25 -15 25 -8 0
-15 5 -15 10 0 6 11 10 25 10 22 0 25 -4 25 -39 0 -26 -5 -41 -16 -45 -74 -29
-127 62 -69 119 25 26 59 33 70 15z m2705 -55 c0 -51 3 -65 15 -65 8 0 15 -4
15 -10 0 -5 -20 -10 -45 -10 -25 0 -45 5 -45 10 0 6 9 10 20 10 18 0 20 7 20
55 0 53 -1 55 -20 45 -14 -8 -20 -8 -20 0 0 9 33 28 53 29 4 1 7 -28 7 -64z
m260 0 c0 -51 3 -65 15 -65 8 0 15 -4 15 -10 0 -5 -20 -10 -45 -10 -25 0 -45
5 -45 10 0 6 9 10 20 10 18 0 20 7 20 55 0 53 -1 55 -20 45 -14 -8 -20 -8 -20
0 0 9 33 28 53 29 4 1 7 -28 7 -64z m144 59 c19 -7 21 -51 4 -56 -9 -3 -8 -9
5 -22 21 -21 21 -30 1 -50 -16 -17 -41 -20 -68 -10 -18 7 -21 45 -5 61 8 8 7
16 -2 31 -22 36 18 64 65 46z m276 -6 c0 -22 -59 -138 -70 -138 -6 0 3 27 20
60 16 33 30 62 30 65 0 3 -16 5 -35 5 -19 0 -35 5 -35 10 0 6 20 10 45 10 29
0 45 -4 45 -12z m-3258 -45 c22 -20 23 -42 2 -71 -18 -26 -50 -28 -76 -5 -22
20 -23 42 -2 71 18 26 50 28 76 5z m206 -32 c16 -47 24 -45 42 12 6 20 16 37
21 37 5 0 0 -23 -11 -50 -11 -28 -20 -53 -20 -55 0 -14 -28 -2 -33 13 -3 9
-12 34 -21 56 -12 27 -13 37 -5 34 7 -2 19 -23 27 -47z m180 37 c7 -7 12 -20
12 -30 0 -14 -8 -18 -41 -18 -36 0 -40 -2 -29 -15 7 -8 25 -15 41 -15 16 0 29
-4 29 -10 0 -16 -66 -12 -80 5 -40 48 24 127 68 83z m72 2 c0 -6 10 -5 25 2
21 9 29 9 42 -5 9 -9 13 -20 9 -24 -5 -5 -11 -2 -13 5 -6 15 -35 16 -51 0 -7
-7 -12 -27 -12 -45 0 -18 -3 -33 -7 -33 -5 0 -8 25 -8 55 0 30 3 55 7 55 4 0
8 -4 8 -10z m185 0 c4 -6 -7 -10 -24 -10 -41 0 -39 -16 4 -30 37 -12 44 -30
21 -49 -17 -14 -68 -11 -73 5 -2 6 10 8 33 6 28 -3 35 -1 32 9 -3 8 -14 15
-26 17 -11 2 -26 10 -33 19 -11 13 -10 17 6 29 22 16 51 18 60 4z m115 -35 c0
-33 4 -45 15 -45 8 0 15 -4 15 -10 0 -5 -20 -10 -45 -10 -25 0 -45 5 -45 10 0
6 9 10 20 10 16 0 20 7 20 35 0 24 -5 35 -15 35 -8 0 -15 5 -15 10 0 6 11 10
25 10 23 0 25 -4 25 -45z m152 28 c22 -20 23 -42 2 -71 -18 -26 -50 -28 -76
-5 -22 20 -23 42 -2 71 18 26 50 28 76 5z m136 -40 c2 -32 -1 -53 -7 -53 -6 0
-11 20 -11 45 0 45 -5 50 -34 39 -11 -4 -16 -19 -16 -45 0 -21 -4 -39 -10 -39
-5 0 -10 24 -10 54 l0 54 43 -2 42 -1 3 -52z m94 42 c0 -5 -5 -11 -11 -13 -6
-2 -11 4 -11 13 0 9 5 15 11 13 6 -2 11 -8 11 -13z m1212 -7 c-11 -36 -24 -48
-56 -48 -17 0 -27 -4 -23 -10 3 -5 17 -10 30 -10 36 0 55 -10 55 -31 0 -20
-28 -39 -59 -39 -22 0 -54 27 -46 40 3 4 6 28 6 52 2 56 13 68 61 68 36 0 39
-2 32 -22z m118 5 c22 -20 23 -42 2 -71 -21 -31 -63 -26 -83 9 -13 24 -13 29
2 53 20 30 52 34 79 9z m-1330 -78 c0 -5 -5 -11 -11 -13 -6 -2 -11 4 -11 13 0
9 5 15 11 13 6 -2 11 -8 11 -13z m1568 0 c0 -8 -7 -15 -15 -15 -8 0 -15 7 -15
15 0 8 7 15 15 15 8 0 15 -7 15 -15z m390 0 c0 -8 -7 -15 -15 -15 -8 0 -15 7
-15 15 0 8 7 15 15 15 8 0 15 -7 15 -15z m-3120 -140 c0 -8 -4 -15 -9 -15 -13
0 -22 16 -14 24 11 11 23 6 23 -9z m910 0 c0 -8 -4 -15 -9 -15 -13 0 -22 16
-14 24 11 11 23 6 23 -9z m1390 -14 c0 -26 3 -29 31 -27 26 1 33 -4 41 -27 15
-42 -13 -79 -55 -75 l-32 3 -3 78 c-2 48 1 77 8 77 5 0 10 -13 10 -29z m460
-48 l0 -78 -35 -2 c-71 -3 -84 90 -15 103 23 5 30 12 30 30 0 13 5 24 10 24 6
0 10 -32 10 -77z m400 67 c0 -5 -11 -10 -25 -10 -18 0 -25 -5 -25 -20 0 -15 7
-20 25 -20 14 0 25 -4 25 -10 0 -5 -11 -10 -25 -10 -22 0 -25 -4 -25 -34 0
-19 -4 -38 -10 -41 -6 -4 -10 10 -10 34 0 34 -3 41 -20 41 -11 0 -20 5 -20 10
0 6 9 10 20 10 13 0 20 7 20 18 0 10 5 23 12 30 15 15 58 16 58 2z m-3265 -10
c4 -6 -6 -10 -22 -10 -35 0 -53 -16 -53 -48 0 -37 18 -62 45 -62 20 0 25 5 25
25 0 16 -6 25 -15 25 -8 0 -15 5 -15 10 0 6 11 10 25 10 22 0 25 -4 25 -39 0
-40 -11 -51 -51 -51 -28 0 -59 36 -59 69 0 37 35 81 65 81 13 0 27 -4 30 -10z
m215 -10 c0 -15 7 -20 25 -20 14 0 25 -4 25 -10 0 -5 -11 -10 -25 -10 -22 0
-25 -4 -25 -35 0 -31 3 -35 25 -35 14 0 25 -4 25 -10 0 -11 -30 -13 -54 -4
-11 4 -16 19 -16 45 0 28 -4 39 -15 39 -8 0 -15 5 -15 10 0 6 7 10 15 10 8 0
15 9 15 20 0 11 5 20 10 20 6 0 10 -9 10 -20z m936 -20 c13 0 24 -4 24 -10 0
-5 -11 -10 -25 -10 -22 0 -25 -4 -25 -35 0 -31 3 -35 25 -35 14 0 25 -4 25
-10 0 -14 -43 -13 -58 2 -7 7 -12 27 -12 45 0 23 -5 33 -15 33 -8 0 -15 5 -15
10 0 6 6 10 14 10 7 0 17 10 21 23 l8 22 4 -22 c3 -16 11 -23 29 -23z m1944
-25 c0 -51 3 -65 15 -65 8 0 15 -4 15 -10 0 -5 -20 -10 -45 -10 -25 0 -45 5
-45 10 0 6 9 10 20 10 18 0 20 7 20 55 0 53 -1 55 -20 45 -25 -13 -27 5 -2 19
36 21 42 13 42 -54z m-2990 -20 c0 -33 4 -45 15 -45 8 0 15 -4 15 -10 0 -5
-20 -10 -45 -10 -25 0 -45 5 -45 10 0 6 9 10 20 10 16 0 20 7 20 35 0 24 -5
35 -14 35 -8 0 -18 5 -21 10 -4 6 7 10 24 10 30 0 31 -1 31 -45z m415 35 c3
-6 -4 -10 -17 -10 -34 0 -50 -14 -46 -41 2 -19 10 -25 36 -27 36 -4 34 -22 -3
-22 -49 0 -72 55 -38 92 17 19 58 24 68 8z m127 -7 c22 -20 23 -42 2 -71 -18
-26 -50 -28 -76 -5 -24 21 -23 48 2 73 24 24 47 25 72 3z m98 5 c0 -7 5 -6 15
2 8 6 19 9 25 5 13 -8 13 -105 0 -105 -5 0 -10 21 -10 47 0 56 -18 47 -30 -14
l-8 -38 -1 48 c-1 61 -25 60 -29 -1 -5 -61 -22 -51 -22 11 0 53 1 54 30 55 17
0 30 -4 30 -10z m130 0 c0 -7 5 -6 15 2 8 6 19 9 25 5 13 -8 13 -105 0 -105
-5 0 -10 21 -10 47 0 56 -18 47 -30 -14 l-8 -38 -1 48 c-1 61 -25 60 -29 -1
-5 -61 -22 -51 -22 11 0 53 1 54 30 55 17 0 30 -4 30 -10z m140 -33 c0 -33 4
-45 15 -45 8 0 15 -4 15 -10 0 -5 -20 -10 -45 -10 -25 0 -45 5 -45 10 0 6 9
10 20 10 16 0 20 7 20 35 0 29 -4 35 -21 35 -11 0 -17 5 -14 10 3 6 17 10 31
10 22 0 24 -4 24 -45z m258 33 c-6 -18 -28 -21 -28 -4 0 9 7 16 16 16 9 0 14
-5 12 -12z m1320 0 c7 -7 12 -31 12 -54 l0 -42 -42 2 c-33 1 -44 5 -46 19 -5
25 16 47 44 47 13 0 24 5 24 11 0 7 -12 10 -30 7 -29 -4 -37 1 -23 15 11 11
48 8 61 -5z m130 0 c7 -7 12 -20 12 -30 0 -14 -8 -18 -41 -18 -36 0 -40 -2
-29 -15 7 -8 25 -15 41 -15 16 0 29 -4 29 -10 0 -13 -46 -13 -71 0 -25 14 -26
75 -1 89 23 14 45 14 60 -1z m260 0 c7 -7 12 -30 12 -53 l0 -41 -42 1 c-38 0
-43 3 -46 24 -4 26 12 41 46 41 12 0 22 5 22 11 0 7 -12 10 -30 7 -29 -4 -37
1 -23 15 11 11 48 8 61 -5z m-1716 -83 c0 -5 -5 -11 -11 -13 -6 -2 -11 4 -11
13 0 9 5 15 11 13 6 -2 11 -8 11 -13z m-1032 -140 c0 -8 -4 -15 -9 -15 -13 0
-22 16 -14 24 11 11 23 6 23 -9z m130 -55 c0 -56 3 -70 15 -70 8 0 15 -4 15
-10 0 -5 -20 -10 -45 -10 -25 0 -45 5 -45 10 0 6 9 10 20 10 18 0 20 7 20 60
0 47 -3 60 -15 60 -8 0 -15 5 -15 10 0 6 11 10 25 10 24 0 25 -2 25 -70z
m-369 44 c10 -12 10 -20 1 -34 -7 -12 -8 -21 -2 -25 14 -9 12 -49 -2 -63 -7
-7 -27 -12 -45 -12 l-33 0 0 75 0 75 34 0 c18 0 39 -7 47 -16z m479 -4 c0 -15
7 -20 25 -20 14 0 25 -4 25 -10 0 -5 -11 -10 -25 -10 -22 0 -25 -4 -25 -35 0
-31 3 -35 25 -35 14 0 25 -4 25 -10 0 -14 -43 -13 -58 2 -7 7 -12 27 -12 45 0
23 -5 33 -15 33 -8 0 -15 5 -15 10 0 6 7 10 15 10 8 0 15 9 15 20 0 11 5 20
10 20 6 0 10 -9 10 -20z m2010 10 c0 -5 -11 -10 -25 -10 -24 0 -25 -3 -27 -67
l-2 -68 -3 68 c-4 64 -5 67 -28 67 -14 0 -25 5 -25 10 0 6 25 10 55 10 30 0
55 -4 55 -10z m502 -7 c23 -21 24 -89 1 -115 -37 -41 -93 -7 -93 57 0 63 51
95 92 58z m244 -23 c13 0 24 -4 24 -10 0 -5 -11 -10 -25 -10 -22 0 -25 -4 -25
-35 0 -31 3 -35 25 -35 14 0 25 -4 25 -10 0 -14 -43 -13 -58 2 -7 7 -12 27
-12 45 0 23 -5 33 -15 33 -8 0 -15 5 -15 10 0 6 6 10 14 10 7 0 17 10 21 23
l8 22 4 -22 c3 -16 11 -23 29 -23z m274 21 c15 -29 13 -37 -21 -76 l-31 -35
31 0 c17 0 31 -4 31 -10 0 -5 -20 -10 -45 -10 -25 0 -45 3 -45 6 0 3 16 24 35
47 43 50 42 73 -3 70 -27 -1 -31 1 -21 13 17 20 57 17 69 -5z m130 9 c0 -5
-13 -10 -30 -10 -23 0 -30 -4 -30 -20 0 -14 7 -20 23 -20 29 0 47 -18 47 -47
0 -25 -26 -43 -64 -43 -38 0 -32 18 7 22 24 2 32 8 32 23 0 15 -8 21 -32 23
-31 3 -33 6 -33 43 0 39 0 39 40 39 22 0 40 -4 40 -10z m240 -55 c0 -51 3 -65
15 -65 8 0 15 -4 15 -10 0 -5 -20 -10 -45 -10 -25 0 -45 5 -45 10 0 6 9 10 20
10 18 0 20 7 20 54 0 51 -1 54 -22 49 -22 -4 -23 -4 -4 11 37 30 46 21 46 -49z
m144 59 c19 -7 21 -51 4 -56 -9 -3 -8 -9 5 -22 21 -21 21 -30 1 -50 -16 -17
-41 -20 -68 -10 -18 7 -21 45 -5 61 8 8 7 16 -2 31 -22 36 18 64 65 46z m270
-16 c33 -47 9 -128 -38 -128 -34 0 -51 26 -51 77 0 33 5 48 19 59 28 20 53 17
70 -8z m120 6 c23 -22 20 -39 -15 -79 l-31 -35 31 0 c17 0 31 -4 31 -10 0 -5
-20 -10 -45 -10 -25 0 -45 3 -45 6 0 4 16 24 36 46 43 48 42 74 -4 71 -27 -1
-31 1 -21 13 15 19 44 18 63 -2z m266 -3 c15 -29 13 -37 -21 -76 l-31 -35 31
0 c17 0 31 -4 31 -10 0 -5 -20 -10 -45 -10 -25 0 -45 3 -45 6 0 4 16 24 36 46
43 48 42 74 -4 71 -27 -1 -31 1 -21 13 17 20 57 17 69 -5z m110 -46 c0 -51 3
-65 15 -65 8 0 15 -4 15 -10 0 -5 -20 -10 -45 -10 -25 0 -45 5 -45 10 0 6 9
10 20 10 18 0 20 7 20 54 0 51 -1 54 -22 49 -22 -4 -23 -4 -4 11 37 30 46 21
46 -49z m280 46 c15 -29 13 -37 -21 -76 l-31 -35 31 0 c17 0 31 -4 31 -10 0
-5 -20 -10 -45 -10 -52 0 -55 7 -19 41 54 51 55 96 1 85 -25 -5 -28 -4 -17 9
18 21 57 19 70 -4z m134 -3 c33 -47 9 -128 -38 -128 -31 0 -47 20 -53 68 -4
32 -1 44 16 61 27 27 56 27 75 -1z m126 3 c15 -29 13 -37 -21 -76 l-31 -35 31
0 c17 0 31 -4 31 -10 0 -5 -20 -10 -45 -10 -52 0 -55 7 -19 41 54 51 55 96 1
85 -25 -5 -28 -4 -17 9 18 21 57 19 70 -4z m124 3 c23 -22 20 -39 -15 -79
l-31 -35 31 0 c17 0 31 -4 31 -10 0 -5 -20 -10 -45 -10 -25 0 -45 3 -45 6 0 4
16 24 36 46 43 48 42 74 -4 71 -27 -1 -31 1 -21 13 15 19 44 18 63 -2z m-5384
-70 c0 -41 2 -45 23 -42 18 2 23 10 25 46 4 60 22 52 22 -10 0 -52 0 -53 -32
-55 -17 -1 -38 2 -45 8 -15 13 -18 99 -3 99 6 0 10 -21 10 -46z m170 1 c0 -33
4 -45 15 -45 8 0 15 -4 15 -10 0 -5 -20 -10 -45 -10 -25 0 -45 5 -45 10 0 6 9
10 20 10 16 0 20 7 20 35 0 24 -5 35 -15 35 -8 0 -15 5 -15 10 0 6 11 10 25
10 23 0 25 -4 25 -45z m382 30 c0 -5 -5 -11 -11 -13 -6 -2 -11 4 -11 13 0 9 5
15 11 13 6 -2 11 -8 11 -13z m1918 -31 c0 -41 2 -45 23 -42 18 2 23 10 25 46
5 61 22 52 22 -11 0 -54 0 -54 -32 -55 -18 0 -38 4 -45 10 -15 12 -18 98 -3
98 6 0 10 -21 10 -46z m188 34 c7 -7 12 -20 12 -30 0 -14 -8 -18 -40 -18 -31
0 -38 -3 -34 -15 4 -9 19 -15 40 -15 19 0 34 -4 34 -10 0 -15 -53 -12 -74 3
-11 8 -18 26 -18 42 0 44 51 72 80 43z m397 3 c3 -5 -7 -11 -21 -13 -56 -6
-59 -68 -4 -68 18 0 29 -4 25 -10 -9 -15 -52 -12 -69 6 -21 20 -20 53 1 76 17
19 58 24 68 9z m1007 -6 c0 -5 -5 -11 -11 -13 -6 -2 -11 4 -11 13 0 9 5 15 11
13 6 -2 11 -8 11 -13z m390 0 c0 -5 -5 -11 -11 -13 -6 -2 -11 4 -11 13 0 9 5
15 11 13 6 -2 11 -8 11 -13z m-3900 -80 c0 -5 -5 -11 -11 -13 -6 -2 -11 4 -11
13 0 9 5 15 11 13 6 -2 11 -8 11 -13z m3510 0 c0 -5 -5 -11 -11 -13 -6 -2 -11
4 -11 13 0 9 5 15 11 13 6 -2 11 -8 11 -13z m390 0 c0 -5 -5 -11 -11 -13 -6
-2 -11 4 -11 13 0 9 5 15 11 13 6 -2 11 -8 11 -13z m-4289 -207 c-35 -83 -62
-127 -48 -78 14 46 68 160 76 160 4 0 -8 -37 -28 -82z m487 53 c0 -26 3 -29
33 -27 32 1 32 1 35 -51 2 -32 -1 -53 -7 -53 -6 0 -11 20 -11 45 0 45 -5 50
-34 39 -11 -4 -16 -19 -16 -45 0 -21 -4 -39 -10 -39 -6 0 -10 33 -10 80 0 47
4 80 10 80 6 0 10 -13 10 -29z m1730 -41 c0 -56 3 -70 15 -70 8 0 15 -4 15
-10 0 -5 -20 -10 -45 -10 -25 0 -45 5 -45 10 0 6 9 10 20 10 18 0 20 7 20 60
0 47 -3 60 -15 60 -8 0 -15 5 -15 10 0 6 11 10 25 10 24 0 25 -2 25 -70z m127
44 c-9 -9 -28 6 -21 18 4 6 10 6 17 -1 6 -6 8 -13 4 -17z m528 -29 c-14 -30
-31 -71 -40 -91 -8 -20 -18 -35 -21 -32 -3 3 7 34 22 69 14 35 30 74 35 87 5
12 13 22 18 22 6 0 -1 -25 -14 -55z m415 -22 l0 -78 -36 0 c-41 0 -65 24 -56
58 8 33 22 47 48 47 19 0 24 5 24 25 0 14 5 25 10 25 6 0 10 -32 10 -77z
m-3518 50 c23 -21 24 -89 1 -115 -37 -41 -93 -9 -93 54 0 64 51 98 92 61z
m122 11 c26 -10 18 -19 -16 -19 -44 0 -46 -21 -4 -42 29 -13 36 -22 36 -45 0
-32 -32 -46 -77 -32 -26 8 -26 9 14 12 56 4 63 27 15 50 -39 18 -51 44 -32 67
13 16 38 19 64 9z m264 -62 c25 -78 26 -82 12 -82 -5 0 -10 7 -10 15 0 22 -59
20 -76 -2 -11 -15 -13 -16 -14 -2 0 29 42 139 54 139 7 0 22 -31 34 -68z
m3252 58 c0 -5 -9 -10 -19 -10 -21 0 -51 -25 -51 -41 0 -6 9 -7 20 -4 26 8 57
-2 64 -22 9 -23 -21 -63 -47 -63 -35 0 -47 19 -47 71 0 38 5 51 22 63 25 18
58 21 58 6z m120 -40 c0 -38 4 -50 15 -50 8 0 15 -4 15 -10 0 -5 -7 -10 -15
-10 -8 0 -16 -8 -16 -17 -1 -17 -2 -17 -6 0 -3 12 -15 17 -39 17 -21 0 -34 5
-34 13 0 19 58 107 70 107 5 0 10 -22 10 -50z m-3230 -5 c7 -9 9 -19 5 -23 -4
-4 -10 -1 -12 6 -6 15 -35 16 -51 0 -7 -7 -12 -27 -12 -45 0 -18 -4 -33 -9
-33 -6 0 -8 66 -2 100 2 13 70 8 81 -5z m125 5 c3 -6 -4 -10 -17 -10 -34 0
-50 -14 -46 -41 2 -19 10 -25 36 -27 36 -4 34 -22 -3 -22 -49 0 -72 55 -38 92
17 19 58 24 68 8z m227 -5 c0 -5 -5 -11 -11 -13 -6 -2 -11 4 -11 13 0 9 5 15
11 13 6 -2 11 -8 11 -13z m1698 -30 c0 -33 4 -45 15 -45 8 0 15 -4 15 -10 0
-5 -20 -10 -45 -10 -25 0 -45 5 -45 10 0 6 9 10 20 10 16 0 20 7 20 35 0 24
-5 35 -15 35 -8 0 -15 5 -15 10 0 6 11 10 25 10 23 0 25 -4 25 -45z m158 -12
c2 -32 -1 -53 -7 -53 -6 0 -11 20 -11 45 0 45 -5 50 -34 39 -11 -4 -16 -19
-16 -45 0 -21 -4 -39 -10 -39 -5 0 -10 24 -10 53 l0 54 43 -1 42 -1 3 -52z
m62 11 c0 -41 2 -45 23 -42 18 2 23 10 25 46 4 60 22 52 22 -10 0 -52 0 -53
-32 -55 -17 -1 -38 2 -45 8 -15 13 -18 99 -3 99 6 0 10 -21 10 -46z m141 24
l12 -22 19 24 c10 12 21 20 25 16 3 -3 -2 -15 -12 -26 -18 -20 -18 -21 4 -50
25 -35 17 -39 -15 -9 l-22 21 -11 -21 c-7 -12 -19 -21 -28 -21 -14 0 -13 4 5
23 26 27 27 40 7 57 -17 14 -20 30 -5 30 5 0 15 -10 21 -22z m307 10 c7 -7 12
-30 12 -53 l0 -41 -42 1 c-33 0 -43 4 -46 18 -5 25 16 47 44 47 13 0 24 5 24
11 0 7 -12 10 -30 7 -29 -4 -37 1 -23 15 11 11 48 8 61 -5z m102 0 c0 -7 5 -6
15 2 8 6 19 9 25 5 13 -8 13 -105 0 -105 -5 0 -10 21 -10 46 0 39 -2 45 -14
34 -8 -6 -17 -28 -19 -48 -3 -32 -4 -31 -5 11 -2 61 -26 60 -30 -1 -5 -61 -22
-51 -22 11 0 53 1 54 30 55 17 0 30 -4 30 -10z m-2468 -83 c0 -5 -5 -11 -11
-13 -6 -2 -11 4 -11 13 0 9 5 15 11 13 6 -2 11 -8 11 -13z m1598 -202 l0 -78
-37 0 c-29 0 -40 5 -49 24 -17 34 -3 64 34 76 24 7 32 15 32 32 0 13 5 23 10
23 6 0 10 -32 10 -77z m270 67 c0 -5 -11 -10 -25 -10 -18 0 -25 -5 -25 -20 0
-15 7 -20 25 -20 14 0 25 -4 25 -10 0 -5 -11 -10 -25 -10 -22 0 -25 -4 -25
-40 0 -22 -4 -40 -10 -40 -5 0 -10 18 -10 40 0 33 -3 40 -20 40 -11 0 -20 5
-20 10 0 6 9 10 20 10 13 0 20 7 20 18 0 10 5 23 12 30 15 15 58 16 58 2z
m350 -60 c0 -56 3 -70 15 -70 8 0 15 -4 15 -10 0 -5 -20 -10 -45 -10 -25 0
-45 5 -45 10 0 6 9 10 20 10 18 0 20 7 20 60 0 53 -2 60 -20 60 -11 0 -20 5
-20 10 0 6 14 10 30 10 l30 0 0 -70z m-3095 50 c3 -6 -5 -10 -19 -10 -31 0
-56 -24 -56 -55 0 -31 25 -55 56 -55 14 0 22 -4 19 -10 -11 -17 -51 -11 -70
10 -40 44 -12 130 41 130 13 0 26 -4 29 -10z m345 -10 c0 -15 7 -20 25 -20 14
0 25 -4 25 -10 0 -5 -11 -10 -25 -10 -22 0 -25 -4 -25 -35 0 -31 3 -35 25 -35
14 0 25 -4 25 -10 0 -14 -43 -13 -58 2 -7 7 -12 27 -12 45 0 23 -5 33 -15 33
-8 0 -15 5 -15 10 0 6 7 10 15 10 8 0 15 9 15 20 0 11 5 20 10 20 6 0 10 -9
10 -20z m390 0 c0 -15 7 -20 25 -20 14 0 25 -4 25 -10 0 -5 -11 -10 -25 -10
-22 0 -25 -4 -25 -35 0 -31 3 -35 25 -35 14 0 25 -4 25 -10 0 -14 -43 -13 -58
2 -7 7 -12 27 -12 45 0 23 -5 33 -15 33 -8 0 -15 5 -15 10 0 6 7 10 15 10 8 0
15 9 15 20 0 11 5 20 10 20 6 0 10 -9 10 -20z m2470 0 c0 -15 7 -20 25 -20 14
0 25 -4 25 -10 0 -5 -11 -10 -25 -10 -22 0 -25 -4 -25 -35 0 -31 3 -35 25 -35
14 0 25 -4 25 -10 0 -14 -43 -13 -58 2 -7 7 -12 27 -12 45 0 23 -5 33 -15 33
-8 0 -15 5 -15 10 0 6 7 10 15 10 8 0 15 9 15 20 0 11 5 20 10 20 6 0 10 -9
10 -20z m-3078 -37 c22 -20 23 -42 2 -71 -18 -26 -50 -28 -76 -5 -22 20 -23
42 -2 71 18 26 50 28 76 5z m136 -40 c2 -32 -1 -53 -7 -53 -6 0 -11 20 -11 46
0 41 -2 45 -22 42 -19 -2 -24 -10 -26 -45 -5 -62 -22 -53 -22 10 l0 54 43 -1
42 -1 3 -52z m250 45 c7 -7 12 -20 12 -30 0 -14 -8 -18 -41 -18 -36 0 -40 -2
-29 -15 7 -8 25 -15 41 -15 16 0 29 -4 29 -10 0 -13 -46 -13 -71 0 -25 14 -26
75 -1 89 23 14 45 14 60 -1z m83 -10 l12 -22 19 24 c10 12 21 20 25 16 3 -3
-2 -15 -12 -26 -18 -20 -18 -21 4 -50 25 -34 8 -41 -19 -8 l-17 22 -14 -22
c-8 -12 -20 -22 -28 -22 -10 0 -8 6 7 23 26 27 27 40 7 57 -17 14 -20 30 -5
30 5 0 15 -10 21 -22z m280 -1 c-13 -13 -26 -3 -16 12 3 6 11 8 17 5 6 -4 6
-10 -1 -17z m1717 11 c7 -7 12 -20 12 -30 0 -14 -8 -18 -41 -18 -36 0 -40 -2
-29 -15 7 -8 25 -15 41 -15 16 0 29 -4 29 -10 0 -13 -46 -13 -71 0 -25 14 -26
75 -1 89 23 14 45 14 60 -1z m260 0 c7 -7 12 -30 12 -53 l0 -41 -42 1 c-38 0
-43 3 -46 24 -4 26 12 41 46 41 12 0 22 5 22 11 0 7 -12 10 -30 7 -29 -4 -37
1 -23 15 11 11 48 8 61 -5z m72 -34 c0 -41 2 -45 23 -42 18 2 23 10 25 46 4
60 22 52 22 -10 0 -52 0 -53 -32 -55 -17 -1 -38 2 -45 8 -15 13 -18 99 -3 99
6 0 10 -21 10 -46z m-2049 -57 c-13 -13 -26 -3 -16 12 3 6 11 8 17 5 6 -4 6
-10 -1 -17z m-251 -132 c0 -8 -4 -15 -9 -15 -13 0 -22 16 -14 24 11 11 23 6
23 -9z m780 -55 c0 -56 3 -70 15 -70 8 0 15 -4 15 -10 0 -5 -20 -10 -45 -10
-25 0 -45 5 -45 10 0 6 9 10 20 10 18 0 20 7 20 60 0 54 -2 60 -21 60 -11 0
-17 5 -14 10 3 6 17 10 31 10 23 0 24 -2 24 -70z m-1400 50 c0 -5 -16 -10 -35
-10 -28 0 -35 -4 -35 -20 0 -15 7 -20 29 -20 17 0 33 -4 36 -10 4 -6 -8 -10
-29 -10 -32 0 -36 -3 -36 -25 0 -22 4 -25 35 -25 19 0 35 -4 35 -10 0 -11 -80
-14 -81 -2 0 4 -2 37 -3 75 l-2 67 43 0 c24 0 43 -4 43 -10z m1146 -30 c13 0
24 -4 24 -10 0 -5 -11 -10 -25 -10 -22 0 -25 -4 -25 -35 0 -31 3 -35 25 -35
14 0 25 -4 25 -10 0 -11 -30 -13 -54 -4 -11 4 -16 19 -16 45 0 28 -4 39 -15
39 -8 0 -15 5 -15 10 0 6 6 10 14 10 7 0 17 10 21 23 l8 22 4 -22 c3 -16 11
-23 29 -23z m1274 20 c0 -15 7 -20 25 -20 14 0 25 -4 25 -10 0 -5 -11 -10 -25
-10 -22 0 -25 -4 -25 -35 0 -31 3 -35 25 -35 14 0 25 -4 25 -10 0 -14 -43 -13
-58 2 -7 7 -12 27 -12 45 0 23 -5 33 -15 33 -8 0 -15 5 -15 10 0 6 7 10 15 10
8 0 15 9 15 20 0 11 5 20 10 20 6 0 10 -9 10 -20z m-2349 -42 l11 -21 19 24
c9 13 21 20 25 16 4 -4 -1 -16 -11 -27 -18 -20 -18 -21 4 -50 25 -34 8 -41
-19 -8 l-17 22 -14 -22 c-8 -12 -20 -22 -28 -22 -10 0 -8 6 7 23 12 13 22 27
22 32 0 5 -10 19 -22 32 -18 19 -19 23 -5 23 9 0 22 -10 28 -22z m307 10 c7
-7 12 -20 12 -30 0 -14 -8 -18 -41 -18 -36 0 -40 -2 -29 -15 7 -8 25 -15 41
-15 16 0 29 -4 29 -10 0 -16 -66 -12 -80 5 -40 48 24 127 68 83z m98 4 c20 9
28 8 41 -5 9 -9 13 -20 9 -24 -5 -5 -11 -2 -13 5 -6 15 -35 16 -51 0 -7 -7
-12 -28 -12 -47 0 -48 -7 -35 -12 21 -4 44 2 73 10 49 2 -6 12 -6 28 1z m144
-37 c0 -33 4 -45 15 -45 8 0 15 -4 15 -10 0 -5 -20 -10 -45 -10 -25 0 -45 5
-45 10 0 6 9 10 20 10 16 0 20 7 20 35 0 24 -5 35 -15 35 -8 0 -15 5 -15 10 0
6 11 10 25 10 23 0 25 -4 25 -45z m120 33 c0 -7 5 -6 15 2 8 6 19 9 25 5 13
-8 13 -105 0 -105 -5 0 -10 21 -10 46 0 39 -2 45 -14 34 -8 -6 -17 -28 -19
-48 -3 -32 -4 -31 -5 11 -2 61 -26 60 -30 -1 -5 -61 -22 -51 -22 11 0 53 1 54
30 55 17 0 30 -4 30 -10z m158 0 c7 -7 12 -20 12 -30 0 -14 -8 -18 -41 -18
-36 0 -40 -2 -29 -15 7 -8 25 -15 41 -15 16 0 29 -4 29 -10 0 -13 -46 -13 -71
0 -25 14 -26 75 -1 89 23 14 45 14 60 -1z m140 -45 c2 -32 -1 -53 -7 -53 -6 0
-11 20 -11 45 0 45 -5 50 -34 39 -11 -4 -16 -19 -16 -45 0 -21 -4 -39 -10 -39
-5 0 -10 24 -10 53 l0 54 43 -1 42 -1 3 -52z m250 45 c7 -7 12 -31 12 -54 l0
-42 -42 2 c-33 1 -44 5 -46 19 -5 25 16 47 44 47 13 0 24 5 24 11 0 7 -12 10
-30 7 -29 -4 -37 1 -23 15 11 11 48 8 61 -5z m236 -9 c-3 -5 -10 -7 -15 -3 -5
3 -7 10 -3 15 3 5 10 7 15 3 5 -3 7 -10 3 -15z m1032 13 c20 9 28 8 41 -5 9
-9 13 -20 9 -24 -5 -5 -11 -2 -13 5 -6 15 -35 16 -51 0 -7 -7 -13 -28 -13 -47
l-2 -36 -6 35 c-6 35 -1 96 6 73 3 -9 10 -9 29 -1z m104 -38 c0 -41 2 -45 23
-42 18 2 23 10 25 46 4 60 22 52 22 -10 0 -52 0 -53 -32 -55 -17 -1 -38 2 -45
8 -15 13 -18 99 -3 99 6 0 10 -21 10 -46z m191 30 c27 -25 13 -44 -33 -44 -35
0 -39 -2 -28 -15 7 -8 25 -15 41 -15 16 0 29 -4 29 -10 0 -14 -64 -12 -78 2
-7 7 -12 26 -12 43 0 52 43 73 81 39z m-1327 -85 c-3 -5 -10 -7 -15 -3 -5 3
-7 10 -3 15 3 5 10 7 15 3 5 -3 7 -10 3 -15z"/>
<path d="M3040 2616 c0 -24 17 -28 23 -6 3 13 0 20 -9 20 -8 0 -14 -6 -14 -14z"/>
<path d="M3067 2540 c-4 -16 -1 -20 11 -18 19 4 23 29 6 35 -6 2 -14 -6 -17
-17z"/>
<path d="M187 2584 c-4 -4 -7 -20 -7 -36 0 -26 3 -29 28 -26 23 3 27 8 27 33
0 23 -5 31 -20 33 -12 2 -24 0 -28 -4z"/>
<path d="M847 2573 c-10 -10 -8 -53 2 -53 10 0 21 24 21 46 0 15 -12 19 -23 7z"/>
<path d="M3300 2575 c-18 -22 -3 -57 23 -53 31 4 39 68 9 68 -11 0 -25 -7 -32
-15z"/>
<path d="M2520 2615 c0 -21 27 -30 45 -15 19 16 10 30 -21 30 -15 0 -24 -6
-24 -15z"/>
<path d="M2521 2551 c-12 -22 -5 -31 25 -31 31 0 41 20 19 37 -25 17 -32 17
-44 -6z"/>
<path d="M1097 2584 c-4 -4 -7 -20 -7 -36 0 -26 3 -29 28 -26 23 3 27 8 27 33
0 23 -5 31 -20 33 -12 2 -24 0 -28 -4z"/>
<path d="M3432 2581 c-8 -4 -12 -19 -10 -32 2 -19 9 -24 33 -24 27 0 30 3 30
30 0 22 -5 31 -20 33 -11 1 -26 -2 -33 -7z"/>
<path d="M3815 2580 c-4 -6 8 -10 30 -10 22 0 34 4 30 10 -3 6 -17 10 -30 10
-13 0 -27 -4 -30 -10z"/>
<path d="M4335 2580 c-4 -6 8 -10 30 -10 22 0 34 4 30 10 -3 6 -17 10 -30 10
-13 0 -27 -4 -30 -10z"/>
<path d="M4855 2580 c-4 -6 -4 -22 -1 -36 5 -20 12 -25 34 -22 23 2 27 8 27
33 0 25 -4 31 -27 33 -14 2 -29 -2 -33 -8z"/>
<path d="M1080 2305 c0 -51 2 -55 23 -55 31 0 47 18 47 55 0 37 -16 55 -47 55
-21 0 -23 -4 -23 -55z"/>
<path d="M435 2310 c-4 -6 8 -10 30 -10 22 0 34 4 30 10 -3 6 -17 10 -30 10
-13 0 -27 -4 -30 -10z"/>
<path d="M1221 2306 c-21 -26 -9 -51 24 -51 27 0 30 3 30 30 0 23 -5 31 -21
33 -11 2 -26 -4 -33 -12z"/>
<path d="M1605 2310 c-4 -6 8 -10 30 -10 22 0 34 4 30 10 -3 6 -17 10 -30 10
-13 0 -27 -4 -30 -10z"/>
<path d="M2260 2304 c0 -10 7 -14 22 -12 32 5 35 28 4 28 -17 0 -26 -5 -26
-16z"/>
<path d="M2255 2220 c-8 -12 17 -23 41 -18 10 1 19 9 22 16 5 15 -54 17 -63 2z"/>
<path d="M2645 2310 c-4 -6 8 -10 30 -10 22 0 34 4 30 10 -3 6 -17 10 -30 10
-13 0 -27 -4 -30 -10z"/>
<path d="M3301 2306 c-21 -26 -9 -51 24 -51 27 0 30 3 30 30 0 23 -5 31 -21
33 -11 2 -26 -4 -33 -12z"/>
<path d="M2780 2076 c-6 -8 -10 -24 -8 -35 3 -20 4 -20 36 5 18 14 30 30 27
35 -9 14 -41 11 -55 -5z"/>
<path d="M2806 2025 c-16 -12 -25 -28 -22 -34 18 -28 60 2 54 38 -3 19 -4 19
-32 -4z"/>
<path d="M3170 2071 c-5 -11 -10 -27 -10 -36 0 -13 7 -11 35 11 19 14 32 30
29 35 -10 16 -43 9 -54 -10z"/>
<path d="M3196 2025 c-16 -12 -25 -28 -22 -34 18 -28 60 2 54 38 -3 19 -4 19
-32 -4z"/>
<path d="M305 2040 c-4 -6 8 -10 30 -10 22 0 34 4 30 10 -3 6 -17 10 -30 10
-13 0 -27 -4 -30 -10z"/>
<path d="M832 2041 c-8 -4 -12 -19 -10 -32 2 -19 9 -24 33 -24 27 0 30 3 30
30 0 22 -5 31 -20 33 -11 1 -26 -2 -33 -7z"/>
<path d="M192 1791 c-17 -47 -15 -51 13 -51 28 0 28 1 11 50 l-13 34 -11 -33z"/>
<path d="M310 1790 c0 -23 5 -30 19 -30 24 0 45 25 37 45 -3 8 -17 15 -31 15
-21 0 -25 -5 -25 -30z"/>
<path d="M2921 1781 c-27 -37 -26 -41 4 -41 22 0 25 4 25 35 0 19 -2 35 -4 35
-3 0 -14 -13 -25 -29z"/>
<path d="M825 1770 c-4 -6 8 -10 30 -10 22 0 34 4 30 10 -3 6 -17 10 -30 10
-13 0 -27 -4 -30 -10z"/>
<path d="M1352 1771 c-8 -4 -12 -19 -10 -32 2 -19 9 -24 33 -24 27 0 30 3 30
30 0 22 -5 31 -20 33 -11 1 -26 -2 -33 -7z"/>
<path d="M3300 1535 c0 -21 27 -30 45 -15 19 16 10 30 -21 30 -15 0 -24 -6
-24 -15z"/>
<path d="M3307 1483 c-17 -16 -6 -43 16 -43 31 0 38 9 26 31 -10 19 -30 25
-42 12z"/>
<path d="M312 1501 c-8 -4 -12 -19 -10 -32 2 -19 9 -24 33 -24 27 0 30 3 30
30 0 22 -5 31 -20 33 -11 1 -26 -2 -33 -7z"/>
<path d="M695 1500 c-4 -6 8 -10 30 -10 22 0 34 4 30 10 -3 6 -17 10 -30 10
-13 0 -27 -4 -30 -10z"/>
<path d="M1223 1504 c-20 -9 -16 -52 6 -59 31 -10 52 5 49 34 -3 26 -27 37
-55 25z"/>
<path d="M2650 1495 c0 -9 9 -15 25 -15 16 0 25 6 25 15 0 9 -9 15 -25 15 -16
0 -25 -6 -25 -15z"/>
<path d="M2645 1410 c-8 -12 17 -23 41 -18 10 1 19 9 22 16 5 15 -54 17 -63 2z"/>
<path d="M2782 1501 c-8 -4 -12 -19 -10 -32 2 -19 9 -24 33 -24 27 0 30 3 30
30 0 22 -5 31 -20 33 -11 1 -26 -2 -33 -7z"/>
<path d="M2663 1233 c-7 -2 -13 -18 -13 -34 0 -27 3 -30 28 -27 23 2 27 8 27
33 0 29 -15 40 -42 28z"/>
<path d="M3042 1228 c-15 -15 -16 -45 -2 -53 22 -14 50 6 50 36 0 31 -25 40
-48 17z"/>
<path d="M832 1231 c-8 -4 -12 -19 -10 -32 2 -19 9 -24 33 -24 27 0 30 3 30
30 0 22 -5 31 -20 33 -11 1 -26 -2 -33 -7z"/>
<path d="M2780 1184 c0 -10 7 -14 22 -12 32 5 35 28 4 28 -17 0 -26 -5 -26
-16z"/>
<path d="M2905 1230 c-4 -6 8 -10 30 -10 22 0 34 4 30 10 -3 6 -17 10 -30 10
-13 0 -27 -4 -30 -10z"/>
<path d="M3170 1184 c0 -10 7 -14 22 -12 32 5 35 28 4 28 -17 0 -26 -5 -26
-16z"/>
<path d="M180 990 c0 -16 5 -21 23 -18 12 2 22 10 22 18 0 8 -10 16 -22 18
-18 3 -23 -2 -23 -18z"/>
<path d="M180 925 c0 -23 4 -26 28 -23 19 2 27 9 27 23 0 14 -8 21 -27 23 -24
3 -28 0 -28 -23z"/>
<path d="M3171 996 c-7 -8 -11 -32 -9 -53 3 -35 6 -38 32 -38 23 0 31 6 38 26
18 55 -29 104 -61 65z"/>
<path d="M4210 995 c0 -21 27 -30 45 -15 19 16 10 30 -21 30 -15 0 -24 -6 -24
-15z"/>
<path d="M4217 943 c-17 -16 -6 -43 16 -43 31 0 38 9 26 31 -10 19 -30 25 -42
12z"/>
<path d="M4470 996 c-6 -8 -10 -24 -8 -35 3 -20 4 -20 36 5 18 14 30 30 27 35
-9 14 -41 11 -55 -5z"/>
<path d="M4496 945 c-16 -12 -25 -28 -22 -34 18 -28 60 2 54 38 -3 19 -4 19
-32 -4z"/>
<path d="M5382 998 c-7 -7 -12 -23 -12 -36 l0 -23 35 27 c19 14 32 30 29 35
-8 13 -38 11 -52 -3z"/>
<path d="M5406 945 c-16 -12 -25 -28 -22 -34 18 -28 60 2 54 38 -3 19 -4 19
-32 -4z"/>
<path d="M2905 960 c-4 -6 8 -10 30 -10 22 0 34 4 30 10 -3 6 -17 10 -30 10
-13 0 -27 -4 -30 -10z"/>
<path d="M3684 674 c-8 -31 7 -48 35 -39 15 4 21 15 21 36 0 24 -4 29 -25 29
-18 0 -26 -7 -31 -26z"/>
<path d="M176 724 c-3 -9 -6 -31 -6 -49 0 -25 5 -35 20 -40 39 -12 72 44 50
85 -13 24 -55 27 -64 4z"/>
<path d="M582 711 c-17 -47 -15 -51 13 -51 28 0 28 1 11 50 l-13 34 -11 -33z"/>
<path d="M3815 670 c-10 -16 15 -41 39 -38 32 5 28 42 -6 46 -14 2 -29 -2 -33
-8z"/>
<path d="M3961 701 c-27 -37 -26 -41 4 -41 22 0 25 4 25 35 0 19 -2 35 -4 35
-3 0 -14 -13 -25 -29z"/>
<path d="M3430 644 c0 -10 7 -14 22 -12 32 5 35 28 4 28 -17 0 -26 -5 -26 -16z"/>
<path d="M2652 418 c-15 -15 -16 -45 -2 -53 22 -14 50 6 50 36 0 31 -25 40
-48 17z"/>
<path d="M312 421 c-8 -4 -12 -19 -10 -32 2 -19 9 -24 33 -24 27 0 30 3 30 30
0 22 -5 31 -20 33 -11 1 -26 -2 -33 -7z"/>
<path d="M695 420 c-4 -6 8 -10 30 -10 22 0 34 4 30 10 -3 6 -17 10 -30 10
-13 0 -27 -4 -30 -10z"/>
<path d="M2775 420 c-4 -6 8 -10 30 -10 22 0 34 4 30 10 -3 6 -17 10 -30 10
-13 0 -27 -4 -30 -10z"/>
<path d="M3040 374 c0 -10 7 -14 22 -12 32 5 35 28 4 28 -17 0 -26 -5 -26 -16z"/>
<path d="M565 150 c-4 -6 8 -10 30 -10 22 0 34 4 30 10 -3 6 -17 10 -30 10
-13 0 -27 -4 -30 -10z"/>
<path d="M1085 150 c-4 -6 8 -10 30 -10 22 0 34 4 30 10 -3 6 -17 10 -30 10
-13 0 -27 -4 -30 -10z"/>
<path d="M1480 104 c0 -10 7 -14 22 -12 32 5 35 28 4 28 -17 0 -26 -5 -26 -16z"/>
<path d="M3035 150 c-4 -6 8 -10 30 -10 22 0 34 4 30 10 -3 6 -17 10 -30 10
-13 0 -27 -4 -30 -10z"/>
<path d="M453 153 c-7 -2 -13 -18 -13 -34 0 -22 5 -29 19 -29 24 0 44 24 39
47 -3 18 -23 26 -45 16z"/>
</g>
</svg>
